<?xml version="1.0" standalone="no"?>
<!DOCTYPE svg PUBLIC "-//W3C//DTD SVG 20010904//EN"
 "http://www.w3.org/TR/2001/REC-SVG-20010904/DTD/svg10.dtd">
<svg version="1.0" xmlns="http://www.w3.org/2000/svg"
 width="1025.000000pt" height="918.000000pt" viewBox="0 0 1025.000000 918.000000"
 preserveAspectRatio="xMidYMid meet">

<g transform="translate(0.000000,918.000000) scale(0.100000,-0.100000)"
fill="#000000" stroke="none">
<path d="M5817 8867 c-31 -8 -63 -19 -69 -25 -15 -15 -11 -15 59 3 96 25 198
16 328 -31 14 -5 17 -4 10 3 -21 22 -130 54 -198 58 -41 3 -97 -1 -130 -8z"/>
<path d="M5541 8750 c-75 -20 -147 -56 -171 -85 -16 -19 -28 -91 -34 -205 l-5
-75 14 75 c8 41 14 77 14 79 1 2 23 -17 51 -43 45 -42 53 -46 100 -46 60 0 65
14 9 28 -22 6 -55 21 -74 33 -36 25 -72 90 -60 109 14 22 113 80 192 111 43
17 80 33 82 35 10 10 -50 1 -118 -16z"/>
<path d="M6290 8484 c-47 -30 -106 -66 -132 -79 -58 -30 -132 -34 -161 -7 -16
13 -19 14 -15 2 2 -8 24 -21 47 -29 34 -11 50 -11 87 -1 43 12 244 136 258
159 10 16 10 16 -84 -45z"/>
<path d="M6494 8493 c15 -38 29 -176 29 -292 0 -92 3 -118 11 -100 27 65 -3
409 -36 409 -5 0 -7 -8 -4 -17z"/>
<path d="M5570 8432 c0 -4 14 -12 32 -17 22 -7 35 -19 41 -40 6 -16 15 -33 21
-37 6 -5 80 -7 164 -7 84 1 156 -2 160 -6 4 -3 6 -41 5 -83 -1 -61 1 -72 10
-57 12 21 13 137 2 155 -4 6 -72 10 -174 10 l-168 0 -7 30 c-4 23 -15 35 -41
45 -40 17 -45 18 -45 7z"/>
<path d="M5396 8409 c-43 -34 -67 -93 -73 -178 -2 -42 -12 -98 -20 -126 -9
-27 -16 -60 -17 -73 -1 -18 -10 -27 -39 -37 -21 -7 -40 -15 -42 -17 -8 -7 16
-78 25 -78 6 0 10 16 10 36 l0 36 43 -7 c23 -3 67 -19 97 -33 57 -28 60 -29
98 -31 15 -1 22 -7 22 -20 0 -11 5 -23 10 -26 6 -4 10 5 10 19 0 23 4 26 34
26 86 0 176 -34 176 -67 0 -7 7 -13 15 -13 8 0 15 4 15 10 0 5 26 17 58 25 31
9 95 27 142 40 79 22 257 55 300 55 17 0 17 -2 -5 -25 -32 -31 -33 -56 -2 -28
60 55 112 58 156 8 37 -42 38 -66 10 -130 -21 -47 -93 -135 -111 -135 -5 0 -6
5 -3 10 3 6 1 10 -4 10 -6 0 -11 -4 -11 -10 0 -5 -12 -16 -27 -24 -25 -14 -26
-15 -7 -16 12 0 27 -7 34 -15 7 -8 20 -15 30 -15 15 0 18 -12 23 -77 l5 -78
-42 -47 c-22 -26 -86 -95 -140 -155 -94 -102 -231 -268 -267 -323 l-17 -25
-46 23 c-64 30 -70 28 -16 -8 24 -16 48 -40 53 -52 6 -17 10 -19 16 -9 7 10
24 4 77 -28 38 -23 90 -57 117 -76 26 -18 73 -43 104 -55 88 -33 243 -70 295
-70 38 0 53 -6 88 -35 61 -51 74 -42 17 10 -42 39 -55 45 -92 45 -51 0 -147
21 -258 56 -100 31 -140 51 -131 67 24 41 160 231 294 412 161 216 195 266
140 205 -98 -107 -331 -416 -413 -547 -21 -35 -41 -63 -44 -63 -3 0 -23 13
-46 29 -23 15 -63 40 -90 55 l-48 27 22 32 c88 127 308 374 528 591 83 83 150
154 148 159 -1 4 -51 -37 -110 -94 -59 -56 -109 -100 -111 -98 -2 2 -6 47 -7
99 -4 90 -2 97 22 130 46 60 69 117 69 166 0 39 -5 51 -34 80 -26 26 -42 34
-69 34 -20 0 -39 5 -43 11 -6 11 -38 10 -159 -4 -15 -1 -21 5 -23 23 -5 43
-23 78 -48 95 -13 8 -35 22 -49 31 -44 28 -27 -1 19 -33 34 -24 48 -42 56 -73
6 -23 10 -43 8 -45 -2 -1 -34 -10 -73 -18 -38 -8 -120 -31 -182 -50 -106 -33
-113 -34 -128 -17 -25 28 -147 53 -221 45 -55 -6 -67 -4 -92 15 -15 12 -46 27
-68 35 -33 11 -39 18 -42 44 -2 17 0 31 5 31 4 0 42 -18 83 -40 41 -22 78 -36
82 -32 12 12 -20 38 -94 75 -61 31 -64 34 -55 57 5 14 12 66 16 117 9 109 40
169 91 180 17 3 30 9 30 14 0 17 -47 9 -74 -12z m942 -791 c-3 -7 -13 -15 -24
-17 -16 -3 -17 -1 -5 13 16 19 34 21 29 4z"/>
<path d="M6167 8282 c-39 -13 -56 -14 -90 -5 -38 10 -40 10 -22 -4 20 -14 55
-14 170 3 33 5 44 2 59 -15 11 -12 29 -21 40 -21 50 -1 64 -35 73 -178 5 -81
8 -100 16 -81 10 28 1 187 -14 226 -9 23 -8 25 13 20 22 -6 22 -5 4 8 -10 8
-38 17 -62 21 -25 3 -55 15 -68 25 -29 22 -54 23 -119 1z"/>
<path d="M7106 8261 c-35 -5 -55 -15 -72 -34 -45 -52 -44 -143 2 -192 33 -35
43 -25 14 15 -57 81 -21 190 64 190 31 0 56 9 56 21 0 5 -3 8 -7 8 -5 -1 -30
-5 -57 -8z"/>
<path d="M7175 8238 c-49 -27 -75 -61 -75 -100 0 -114 105 -194 185 -142 38
25 30 35 -17 18 -23 -8 -49 -12 -58 -9 -48 15 -96 107 -79 151 10 30 62 64 95
64 27 0 100 -37 138 -69 34 -29 66 -112 66 -171 0 -79 -15 -101 -80 -121 -30
-9 -56 -21 -58 -28 -5 -15 19 -14 61 4 43 18 47 18 47 5 0 -20 -41 -50 -69
-50 -17 0 -33 -5 -37 -11 -5 -8 4 -10 30 -7 20 2 36 1 36 -2 0 -4 -13 -19 -29
-34 -24 -23 -43 -29 -107 -37 -125 -16 -228 -73 -284 -158 -29 -43 -40 -101
-20 -101 6 0 10 11 10 23 0 38 55 104 122 148 66 42 94 52 202 67 57 9 75 16
102 43 19 18 36 41 40 51 3 10 23 23 45 30 41 12 93 61 86 82 -2 6 -20 11 -40
11 l-35 0 5 67 c5 59 3 73 -25 131 -22 48 -41 72 -73 94 -92 63 -139 76 -184
51z m315 -383 c-7 -8 -17 -15 -23 -15 -5 0 -2 9 8 20 21 23 35 19 15 -5z m-50
-30 c0 -8 -4 -15 -10 -15 -5 0 -10 7 -10 15 0 8 5 15 10 15 6 0 10 -7 10 -15z"/>
<path d="M5680 8029 c-104 -27 -105 -28 -93 -40 7 -7 35 -5 90 8 75 18 80 18
118 2 44 -20 55 -18 35 6 -12 14 -64 46 -72 44 -2 0 -37 -9 -78 -20z"/>
<path d="M6940 7881 c-125 -40 -300 -164 -300 -213 0 -15 13 -6 51 37 56 61
145 117 254 160 39 15 72 29 74 31 9 9 -27 2 -79 -15z"/>
<path d="M6280 7858 c-10 -87 -9 -158 2 -158 16 0 24 145 8 155 -5 3 -10 5
-10 3z"/>
<path d="M6915 7819 c-95 -60 -195 -184 -195 -241 0 -16 7 -8 24 27 23 51 104
141 186 208 55 44 50 47 -15 6z"/>
<path d="M5448 7746 l-46 -93 20 -31 c18 -29 53 -50 65 -39 3 3 -10 19 -29 35
l-33 30 43 82 c40 78 51 111 35 110 -5 -1 -29 -43 -55 -94z"/>
<path d="M5520 7833 c1 -18 21 -100 32 -126 13 -34 48 -50 80 -38 22 8 21 9
-12 18 -33 8 -37 14 -59 81 -13 40 -28 72 -32 72 -5 0 -9 -3 -9 -7z"/>
<path d="M5417 7790 c-12 -32 -20 -40 -42 -40 -14 0 -37 7 -51 16 -37 25 -40
10 -4 -20 55 -46 105 -26 117 48 7 47 0 46 -20 -4z"/>
<path d="M7155 7803 c-46 -12 -63 -53 -22 -53 24 0 67 33 67 50 0 10 -11 11
-45 3z m-15 -33 c0 -5 -4 -10 -10 -10 -5 0 -10 5 -10 10 0 6 5 10 10 10 6 0
10 -4 10 -10z"/>
<path d="M5730 7732 c0 -10 -7 -28 -16 -40 -19 -27 -10 -43 11 -21 19 19 31
79 16 79 -6 0 -11 -8 -11 -18z"/>
<path d="M5305 7668 c4 -18 25 -85 47 -148 21 -63 43 -132 49 -154 20 -80 61
-127 140 -160 32 -13 38 -13 74 5 l40 19 -45 -4 c-47 -3 -109 24 -143 62 -14
16 -61 143 -124 335 -25 76 -51 108 -38 45z"/>
<path d="M5620 7615 c0 -14 5 -25 10 -25 6 0 10 11 10 25 0 14 -4 25 -10 25
-5 0 -10 -11 -10 -25z"/>
<path d="M5530 7620 c-19 -12 -13 -16 33 -24 38 -7 46 1 25 22 -14 14 -37 15
-58 2z"/>
<path d="M6480 7458 c-136 -148 -288 -326 -369 -433 -69 -90 -29 -47 139 150
74 88 186 215 249 283 62 68 111 125 108 128 -3 3 -60 -55 -127 -128z"/>
<path d="M6157 7546 c-9 -19 -37 -63 -62 -98 -71 -95 -73 -110 -6 -40 59 61
101 126 101 157 0 26 -15 17 -33 -19z"/>
<path d="M6675 7560 c-9 -15 8 -33 64 -69 42 -27 131 -66 131 -56 0 2 -30 22
-67 45 -38 23 -80 54 -94 67 -18 16 -29 21 -34 13z"/>
<path d="M6520 7413 c-57 -76 -137 -181 -179 -233 -227 -287 -268 -340 -221
-290 158 170 523 641 508 655 -3 3 -52 -56 -108 -132z"/>
<path d="M5475 7490 c3 -5 11 -10 16 -10 6 0 7 5 4 10 -3 6 -11 10 -16 10 -6
0 -7 -4 -4 -10z"/>
<path d="M5453 7455 c22 -20 39 -25 80 -25 29 0 59 5 67 10 11 7 -2 10 -45 10
-33 0 -71 7 -85 15 -39 22 -48 17 -17 -10z"/>
<path d="M6618 7453 c-25 -29 -39 -61 -29 -67 5 -3 18 10 30 29 11 19 26 35
34 35 20 0 117 -103 117 -125 1 -19 1 -19 14 -3 7 10 16 15 20 11 4 -4 4 1 0
10 -4 13 2 28 22 48 19 20 23 29 13 29 -9 0 -26 -11 -39 -25 l-24 -25 -51 50
c-53 53 -82 61 -107 33z"/>
<path d="M5315 7437 c-7 -14 -31 -30 -70 -44 -63 -23 -51 -31 16 -12 44 14 88
54 73 69 -6 6 -13 1 -19 -13z"/>
<path d="M4775 7388 c-101 -11 -234 -42 -293 -68 -63 -28 -47 -34 24 -10 89
31 238 59 353 66 56 4 104 11 107 16 6 10 -84 8 -191 -4z"/>
<path d="M5474 7386 c22 -18 32 -19 61 -6 17 7 15 9 -12 9 -17 1 -40 4 -50 7
-16 5 -16 4 1 -10z"/>
<path d="M3583 7316 c-67 -30 -141 -67 -165 -84 -24 -16 -61 -32 -83 -35 -50
-8 -238 -133 -324 -216 -34 -33 -81 -71 -104 -85 -59 -36 -113 -83 -105 -92 4
-4 18 1 30 10 13 9 40 28 62 42 21 14 57 45 80 68 83 83 290 233 346 251 l25
7 -25 -28 c-21 -23 -21 -25 -4 -14 128 89 177 117 289 166 143 62 147 64 119
64 -10 -1 -74 -25 -141 -54z"/>
<path d="M3770 7340 c0 -5 26 -10 58 -10 31 0 111 -7 177 -14 151 -18 362 -31
354 -22 -10 11 -424 56 -511 56 -45 0 -78 -4 -78 -10z"/>
<path d="M6590 7293 c0 -37 117 -83 211 -83 151 0 252 -32 404 -127 108 -67
116 -70 70 -28 -56 52 -179 122 -253 145 -35 11 -120 24 -190 30 -137 10 -185
22 -219 53 -13 11 -23 16 -23 10z"/>
<path d="M4397 7277 c11 -19 89 -87 99 -87 4 0 -14 23 -41 50 -47 47 -75 66
-58 37z"/>
<path d="M5395 7148 c13 -29 33 -100 45 -158 21 -105 30 -132 30 -92 0 12 10
41 22 64 17 32 23 62 25 118 l2 75 -9 -71 c-8 -73 -49 -174 -50 -125 0 39 -31
152 -51 193 -29 58 -41 55 -14 -4z"/>
<path d="M5720 7193 c0 -5 18 -15 40 -22 29 -9 49 -24 70 -54 16 -23 36 -51
45 -62 16 -19 16 -19 10 10 -8 35 -46 89 -79 110 -28 19 -86 31 -86 18z"/>
<path d="M5569 7043 c-31 -46 -31 -47 -5 -23 30 27 50 59 43 67 -3 2 -20 -17
-38 -44z"/>
<path d="M7330 7064 c0 -3 21 -30 48 -58 26 -29 95 -115 155 -192 59 -76 125
-160 147 -185 l40 -47 -51 15 c-66 19 -219 14 -269 -10 l-35 -17 35 8 c19 4
87 7 151 7 l117 0 120 -60 c130 -65 143 -60 25 9 -66 40 -81 55 -184 192 -198
264 -299 377 -299 338z"/>
<path d="M5615 6931 c-43 -16 -62 -27 -50 -29 24 -3 142 43 129 51 -5 2 -40
-7 -79 -22z"/>
<path d="M3000 6906 c0 -3 23 -17 52 -31 74 -37 172 -109 193 -142 10 -15 24
-46 31 -68 9 -27 13 -33 13 -17 1 31 -25 91 -52 120 -51 55 -237 163 -237 138z"/>
<path d="M5450 6835 c-19 -19 -29 -35 -24 -35 13 0 69 58 63 65 -3 2 -21 -11
-39 -30z"/>
<path d="M5589 6824 c-24 -26 -20 -31 10 -12 14 9 27 8 57 -5 l39 -16 -49 0
c-36 -1 -47 -4 -39 -12 15 -15 129 -24 137 -11 8 13 -9 26 -76 55 l-56 25 -23
-24z"/>
<path d="M2862 6783 c6 -8 43 -30 80 -49 82 -41 107 -76 109 -149 1 -48 1 -49
10 -17 12 42 -3 101 -33 129 -29 26 -183 106 -166 86z"/>
<path d="M5550 6759 c-11 -19 -35 -62 -52 -95 l-32 -62 18 -41 c17 -37 56 -84
56 -67 0 4 -11 29 -25 56 -14 27 -25 54 -25 60 0 6 21 47 46 91 25 45 43 83
40 86 -3 3 -14 -10 -26 -28z"/>
<path d="M2740 6754 c-25 -14 -34 -22 -20 -18 37 10 90 32 90 38 0 12 -27 4
-70 -20z"/>
<path d="M3544 6692 c-71 -48 -152 -100 -178 -115 -80 -46 -45 -41 40 6 106
59 297 196 274 196 -3 0 -64 -39 -136 -87z"/>
<path d="M3760 6720 c0 -11 69 -59 125 -87 86 -44 304 -104 500 -139 44 -7 94
-17 110 -20 17 -3 27 -4 24 0 -3 3 -102 29 -220 56 -299 70 -402 106 -501 174
-21 14 -38 21 -38 16z"/>
<path d="M2595 6679 c-27 -16 -91 -49 -141 -73 -89 -42 -92 -45 -180 -155 -49
-62 -93 -120 -97 -129 -12 -24 102 100 160 174 42 53 58 65 123 92 83 35 200
101 200 114 0 13 -12 9 -65 -23z"/>
<path d="M2680 6707 c0 -1 14 -15 30 -30 33 -31 42 -19 10 13 -17 17 -40 27
-40 17z"/>
<path d="M5617 6669 c9 -9 6 -20 -11 -43 -41 -55 -39 -62 4 -18 22 23 44 41
48 38 4 -2 32 -11 62 -20 45 -14 52 -14 40 -2 -17 17 -113 56 -137 56 -13 0
-14 -3 -6 -11z"/>
<path d="M4820 6617 c0 -2 15 -37 34 -78 19 -41 41 -107 49 -147 17 -80 27
-102 27 -56 0 50 -29 152 -60 213 -25 50 -50 84 -50 68z"/>
<path d="M5678 6595 c-3 -3 -22 -6 -43 -7 l-37 -1 6 -43 c7 -51 36 -124 43
-107 2 6 0 29 -6 50 -17 61 -14 83 12 83 12 1 33 7 47 15 23 13 23 14 4 15
-11 0 -23 -2 -26 -5z"/>
<path d="M3090 6506 c-140 -56 -150 -60 -150 -68 0 -4 4 -8 10 -8 13 0 223 90
235 101 16 15 -6 10 -95 -25z"/>
<path d="M2900 6475 c-41 -29 -91 -66 -110 -84 -19 -18 -54 -46 -76 -64 -52
-39 -109 -106 -78 -89 11 6 26 18 34 26 7 9 18 16 25 16 7 0 39 29 72 64 33
35 80 75 104 89 52 31 116 83 109 90 -3 2 -39 -19 -80 -48z"/>
<path d="M4525 6522 c16 -18 169 -35 223 -26 41 7 32 9 -73 15 -66 3 -129 10
-140 14 -15 6 -17 5 -10 -3z"/>
<path d="M5725 6512 c-5 -4 -11 -23 -12 -42 l-2 -35 19 25 c11 14 20 28 20 33
0 4 6 7 14 7 8 0 18 5 21 10 7 12 -45 14 -60 2z"/>
<path d="M6736 6491 c-25 -27 -46 -105 -46 -170 0 -55 -1 -56 -38 -74 l-38
-18 -59 35 c-58 35 -93 46 -80 26 4 -6 31 -25 61 -42 37 -21 53 -35 50 -45 -5
-11 -1 -13 17 -7 12 4 24 10 27 14 3 4 20 15 38 24 29 15 33 15 38 1 3 -8 10
-12 15 -10 12 8 80 -28 194 -105 55 -36 107 -70 115 -75 26 -14 -44 56 -72 72
l-26 16 20 28 c11 15 17 32 13 39 -5 8 -11 5 -19 -11 -14 -29 -36 -36 -36 -12
0 11 6 25 13 32 10 11 9 13 -2 9 -12 -3 -20 -13 -38 -47 -1 -2 -15 6 -32 18
-16 12 -55 33 -86 46 l-55 25 0 62 c0 80 15 134 45 164 14 14 19 24 11 24 -7
0 -21 -9 -30 -19z"/>
<path d="M6800 6500 c0 -14 83 -54 160 -78 69 -21 213 -47 319 -56 l65 -6 -90
46 c-49 26 -110 59 -135 75 -55 35 -81 39 -54 9 10 -11 54 -38 98 -60 89 -45
80 -48 -60 -21 -111 21 -212 53 -261 82 -38 22 -42 23 -42 9z"/>
<path d="M2361 6410 c-45 -39 -81 -74 -81 -77 0 -7 15 5 100 77 36 30 67 56
69 57 2 2 2 6 -1 9 -4 3 -43 -27 -87 -66z"/>
<path d="M5825 6471 c-6 -4 -37 -22 -70 -40 -54 -28 -222 -171 -201 -171 4 0
44 30 89 68 44 37 108 81 141 97 33 17 62 36 64 43 4 14 -9 16 -23 3z"/>
<path d="M4830 6447 c0 -1 7 -33 15 -71 36 -175 30 -364 -21 -619 -14 -71 -24
-131 -21 -133 6 -7 54 180 72 280 17 102 20 310 4 406 -14 90 -28 140 -39 140
-6 0 -10 -1 -10 -3z"/>
<path d="M7276 6442 c-8 -14 106 -69 155 -75 68 -9 248 -72 367 -127 124 -59
208 -109 281 -169 54 -44 55 -44 30 -10 -43 57 -117 107 -264 179 -158 78
-337 142 -408 146 -26 1 -58 9 -70 17 -45 29 -86 47 -91 39z"/>
<path d="M7966 6412 c22 -15 124 -161 174 -249 29 -51 54 -93 56 -93 8 0 -28
87 -58 138 -49 87 -148 212 -166 212 -10 0 -13 -3 -6 -8z"/>
<path d="M2525 6403 c-34 -8 -44 -26 -10 -19 27 6 21 -3 -51 -71 -101 -98
-137 -142 -69 -86 28 22 61 53 74 67 14 14 28 26 33 26 4 0 8 -21 9 -47 1 -39
2 -43 9 -23 4 14 8 41 9 61 1 22 9 43 21 54 37 33 25 50 -25 38z"/>
<path d="M5543 6368 c-16 -18 -90 -109 -164 -203 -234 -299 -421 -538 -471
-605 l-50 -65 52 55 c29 30 113 132 188 225 75 94 170 213 212 265 135 168
261 332 267 346 8 22 0 17 -34 -18z"/>
<path d="M6515 6390 c-4 -6 7 -10 25 -10 17 0 50 -10 73 -21 36 -19 40 -19 27
-4 -29 35 -111 58 -125 35z"/>
<path d="M5800 6326 c-47 -24 -96 -57 -110 -72 l-25 -28 35 23 c74 46 191 101
217 101 16 0 39 -3 52 -7 23 -6 22 -6 -8 -19 -17 -7 -31 -18 -31 -25 0 -7 6
-8 18 -3 37 17 113 16 163 -2 66 -24 102 -61 107 -110 9 -81 3 -163 -13 -195
-31 -58 -163 -252 -256 -374 -50 -66 -111 -154 -135 -195 -42 -70 -104 -238
-119 -322 -4 -22 -13 -38 -21 -38 -35 0 -3 -37 96 -112 118 -89 334 -217 346
-205 3 3 -50 40 -118 83 -149 96 -278 190 -278 204 0 5 8 10 18 10 16 1 16 1
0 14 -25 18 -23 27 22 167 46 143 74 193 235 409 206 277 255 362 255 442 0
36 9 35 46 -3 35 -37 165 -126 289 -197 89 -51 91 -53 129 -129 35 -69 40 -88
44 -168 4 -90 4 -90 -37 -168 -45 -86 -111 -188 -147 -227 -12 -14 -45 -59
-73 -100 -76 -111 -125 -284 -106 -377 7 -35 9 -30 21 56 24 166 67 263 178
400 51 63 116 164 167 261 21 39 24 58 23 143 -1 97 -1 100 -50 195 -56 111
-55 111 -61 95 -5 -15 -283 164 -359 232 -48 43 -57 57 -65 100 -11 60 -52
104 -120 127 -206 72 -215 72 -329 14z"/>
<path d="M7170 6298 c0 -91 -41 -212 -97 -284 -23 -31 -24 -35 -6 -24 26 16
76 99 98 160 21 59 32 185 16 194 -8 5 -11 -9 -11 -46z"/>
<path d="M6420 6310 c-37 -14 -80 -20 -134 -20 -58 0 -77 -3 -69 -11 7 -7 42
-10 95 -7 64 3 96 10 138 30 65 31 48 36 -30 8z"/>
<path d="M5450 6178 c-41 -55 -137 -181 -213 -281 -216 -284 -481 -638 -507
-677 -48 -72 16 4 127 150 60 80 188 249 283 375 96 127 223 294 282 372 90
119 121 167 106 162 -2 0 -37 -46 -78 -101z"/>
<path d="M5788 6216 c-104 -118 -775 -1024 -832 -1123 -4 -7 -5 -13 -3 -13 3
0 38 46 78 103 40 56 134 183 209 282 75 99 206 272 290 385 84 113 191 251
237 307 45 56 83 104 83 107 0 16 -19 1 -62 -48z"/>
<path d="M5508 6148 c-93 -140 -274 -389 -443 -613 -186 -246 -237 -315 -231
-315 4 0 97 116 281 350 120 152 475 650 475 666 0 2 -4 4 -10 4 -5 0 -37 -42
-72 -92z"/>
<path d="M5542 6113 c-164 -236 -303 -449 -522 -798 -140 -225 -59 -116 150
200 99 149 237 355 307 459 153 227 177 266 164 266 -5 0 -50 -57 -99 -127z"/>
<path d="M1646 6211 c-3 -4 50 -11 117 -14 77 -4 229 -24 411 -56 160 -28 292
-49 294 -47 9 10 -363 85 -546 110 -123 17 -268 21 -276 7z"/>
<path d="M1330 6131 c-281 -112 -610 -262 -632 -288 -7 -9 15 -2 50 16 35 18
131 61 215 97 265 115 472 206 476 210 11 10 -22 0 -109 -35z"/>
<path d="M6680 6137 c0 -23 122 -132 192 -171 35 -19 89 -45 120 -57 l57 -21
-5 -122 c-2 -66 -6 -184 -8 -261 -3 -91 -12 -173 -26 -235 -35 -155 -49 -282
-60 -518 -6 -123 -14 -242 -19 -265 -22 -99 -55 -531 -40 -521 5 3 9 38 10 77
0 40 5 110 10 157 6 47 11 99 13 115 2 17 11 55 20 85 13 42 20 115 26 300 9
257 26 418 61 585 15 71 25 172 33 345 l11 246 40 -11 c119 -35 124 -26 10 19
-164 65 -196 79 -255 114 -34 20 -91 63 -126 95 -37 34 -64 52 -64 44z"/>
<path d="M8150 6052 c0 -5 10 -17 21 -28 12 -10 30 -37 40 -59 38 -82 15 -177
-56 -231 -48 -36 -37 -42 14 -9 27 19 49 45 67 82 25 50 26 58 16 104 -13 56
-53 123 -82 139 -11 6 -20 7 -20 2z"/>
<path d="M2660 6009 c0 -8 22 -40 49 -70 105 -118 349 -472 503 -729 41 -69
130 -224 197 -345 119 -213 202 -348 222 -360 5 -4 -4 16 -20 42 -16 26 -89
156 -161 288 -206 373 -368 635 -554 895 -117 164 -236 305 -236 279z"/>
<path d="M7400 5934 c-13 -34 -13 -39 5 -54 13 -10 19 -10 35 5 11 10 20 22
20 27 0 5 -7 2 -16 -6 -8 -9 -20 -16 -25 -16 -13 0 -11 44 3 58 9 9 9 12 0 12
-7 0 -17 -12 -22 -26z"/>
<path d="M2800 5941 c0 -4 15 -11 33 -14 45 -7 275 -112 447 -203 420 -222
997 -501 1260 -609 169 -69 512 -197 516 -192 3 2 -17 12 -43 22 -27 10 -70
28 -98 40 -27 12 -116 48 -197 80 -82 32 -148 61 -148 64 0 11 112 156 153
198 22 24 38 46 34 50 -11 10 -63 -43 -115 -117 -25 -36 -56 -79 -69 -97 l-23
-32 -133 59 c-299 131 -590 274 -1185 579 -262 135 -432 202 -432 172z"/>
<path d="M7246 5878 c23 -38 170 -127 274 -167 41 -16 111 -37 155 -46 79 -16
355 -33 344 -21 -3 3 -75 13 -160 21 -244 23 -377 67 -543 179 -73 49 -82 53
-70 34z"/>
<path d="M2866 5802 c5 -5 25 -15 44 -22 191 -72 684 -293 1305 -585 327 -153
737 -337 742 -332 3 4 -75 41 -642 307 -952 447 -1521 695 -1449 632z"/>
<path d="M680 5750 c0 -15 41 -78 113 -172 34 -46 105 -138 156 -205 51 -68
95 -123 97 -123 8 0 -89 139 -216 310 -68 91 -125 173 -128 183 -5 18 -22 24
-22 7z"/>
<path d="M2940 5699 c14 -12 63 -41 111 -64 92 -47 469 -199 475 -192 6 5
-122 63 -301 137 -82 34 -182 79 -222 101 -80 43 -101 49 -63 18z"/>
<path d="M3550 5410 c0 -10 388 -205 749 -376 l134 -64 -25 -28 c-14 -15 -62
-75 -107 -134 -45 -59 -88 -111 -94 -115 -7 -5 -18 -21 -26 -38 -12 -27 -14
-28 -21 -10 -7 19 -8 19 -19 -5 -27 -63 -121 -524 -134 -664 -9 -89 11 -25 38
125 41 223 104 490 121 516 17 27 29 23 69 -24 37 -45 51 -42 21 5 -13 20 -27
48 -31 61 -7 23 -6 24 42 19 51 -5 136 -42 230 -101 28 -17 73 -44 100 -59 26
-15 68 -39 93 -53 l45 -26 -49 46 c-27 26 -72 58 -100 72 -28 14 -80 45 -116
68 -76 49 -117 66 -182 74 l-47 6 95 120 c53 66 99 124 104 128 4 5 20 2 34
-5 l27 -14 -67 -75 c-117 -130 -129 -158 -20 -45 l105 110 30 -15 30 -14 -70
-89 c-38 -49 -74 -98 -80 -110 l-10 -21 18 21 c10 12 49 60 86 108 38 47 70
86 71 86 1 0 67 -29 146 -65 78 -36 145 -64 146 -62 2 2 -92 50 -209 108 -116
57 -213 107 -215 111 -2 5 -9 8 -16 8 -14 0 -829 395 -861 416 -23 17 -35 18
-35 4z"/>
<path d="M7093 5180 c-13 -5 -23 -11 -23 -12 0 -2 33 -3 73 -3 82 0 145 -25
251 -97 157 -106 272 -234 338 -375 36 -75 42 -100 46 -171 4 -77 2 -87 -27
-147 -65 -131 -239 -251 -451 -310 -52 -15 -106 -30 -120 -35 l-25 -8 26 -1
c49 -2 221 48 304 88 152 74 240 155 291 266 24 51 26 66 22 150 -4 87 -7 100
-50 187 -75 149 -197 280 -358 383 -120 77 -239 111 -297 85z"/>
<path d="M4696 5121 c27 -10 66 -26 85 -36 33 -17 33 -17 19 0 -21 25 -89 55
-125 54 -26 0 -24 -3 21 -18z"/>
<path d="M5630 5025 c0 -6 5 -16 12 -23 9 -9 7 -12 -9 -12 -13 0 -44 -25 -83
-67 -122 -133 -202 -265 -266 -438 -31 -84 -37 -113 -38 -185 -1 -74 3 -92 26
-140 27 -54 27 -55 8 -75 -29 -31 -40 -69 -56 -200 -26 -213 -75 -386 -154
-545 -85 -171 -200 -382 -248 -454 -112 -170 -257 -278 -535 -402 -59 -26
-105 -49 -103 -51 6 -6 194 66 271 104 173 87 297 195 396 346 94 142 274 500
314 623 43 130 71 260 80 369 9 110 30 176 65 210 l29 27 80 -60 c124 -94 231
-153 386 -214 77 -30 43 -7 -105 73 -222 119 -374 229 -316 229 8 0 18 5 21
10 4 6 -10 9 -37 6 -24 -2 -43 -9 -43 -15 0 -28 -21 -12 -37 29 -66 174 53
482 293 758 51 58 69 58 130 1 30 -27 88 -67 131 -89 95 -50 115 -52 28 -3
-79 44 -178 121 -213 165 -14 18 -26 28 -27 23z"/>
<path d="M5645 4939 c38 -48 137 -124 213 -163 63 -32 43 -9 -28 33 -38 23
-100 67 -137 99 -38 31 -59 45 -48 31z"/>
<path d="M5080 4910 c10 -7 -16 -8 -80 -5 -73 3 -84 2 -50 -5 59 -11 131 -12
148 -1 11 7 10 10 -3 15 -24 9 -32 7 -15 -4z"/>
<path d="M5161 4854 c12 -15 10 -16 -21 -10 -19 4 -44 10 -55 13 -18 4 -18 3
3 -12 14 -10 36 -15 58 -13 31 2 41 -2 65 -32 16 -19 29 -37 29 -40 0 -4 -17
-11 -37 -17 l-38 -10 42 -8 c24 -4 40 -11 37 -16 -3 -5 -3 -9 0 -9 3 0 10 9
16 20 8 15 7 27 -5 50 -22 43 -75 100 -92 100 -13 0 -13 -2 -2 -16z"/>
<path d="M5098 4813 c6 -2 18 -2 25 0 6 3 1 5 -13 5 -14 0 -19 -2 -12 -5z"/>
<path d="M3584 4741 c4 -5 38 -21 76 -36 39 -15 70 -29 70 -31 0 -2 -18 -33
-40 -69 -43 -70 -45 -75 -31 -75 14 0 103 148 96 160 -5 8 -153 60 -171 60 -3
0 -3 -4 0 -9z"/>
<path d="M4992 4689 c2 -7 28 -12 63 -13 55 -1 61 -3 73 -29 23 -48 7 -94 -69
-197 -39 -52 -92 -126 -118 -165 -49 -71 -101 -187 -101 -223 0 -24 25 -52 47
-52 11 0 9 5 -7 18 -20 16 -21 21 -10 62 19 72 62 147 168 295 55 77 104 157
110 178 13 47 -1 101 -31 122 -26 18 -131 21 -125 4z"/>
<path d="M6219 4588 c-116 -83 -239 -240 -293 -374 -30 -72 -56 -196 -56 -262
0 -47 27 -159 36 -150 2 3 -1 29 -6 59 -20 104 21 298 87 419 63 114 182 250
269 307 24 15 32 33 16 33 -5 0 -29 -14 -53 -32z"/>
<path d="M1710 4532 c0 -20 170 -54 365 -72 122 -12 853 -26 844 -16 -3 3
-153 10 -335 16 -181 6 -387 15 -459 20 -119 10 -337 41 -392 56 -14 4 -23 2
-23 -4z"/>
<path d="M4435 4529 c-7 -11 17 -58 51 -98 14 -17 23 -31 20 -31 -3 0 -38 23
-77 51 -39 28 -77 53 -85 56 -15 6 -12 15 -53 -192 -17 -82 -47 -211 -68 -285
l-38 -135 -73 -3 c-39 -2 -72 -7 -72 -12 0 -10 150 -18 157 -7 9 15 72 7 82
-10 9 -16 10 -16 11 5 0 20 -5 22 -45 22 -49 0 -51 3 -32 49 9 22 34 45 78 72
35 21 58 39 51 39 -7 0 -34 -14 -58 -31 -25 -17 -47 -29 -48 -27 -2 1 14 66
36 142 21 77 46 187 55 246 l16 106 74 -49 c40 -27 79 -47 86 -44 7 3 24 -1
38 -9 43 -24 44 -15 1 22 -55 46 -87 93 -75 105 7 7 44 -7 108 -40 99 -51 130
-60 78 -23 -74 52 -206 101 -218 81z"/>
<path d="M4222 4345 c-13 -71 -26 -143 -29 -160 -3 -16 -3 -28 0 -25 10 10 58
261 55 289 -2 14 -13 -32 -26 -104z"/>
<path d="M2360 4404 c-32 -82 -58 -257 -90 -599 -43 -462 -81 -1082 -78 -1280
l1 -110 8 150 c30 579 94 1379 130 1620 9 60 15 75 27 73 9 -2 18 5 20 15 2
10 -3 17 -12 17 -19 0 -19 0 -2 75 16 65 13 85 -4 39z"/>
<path d="M2090 4403 c-3 -7 -1 -189 3 -405 5 -244 4 -612 -2 -968 -12 -619
-18 -752 -56 -1391 -14 -229 -24 -458 -23 -510 2 -72 8 -14 26 244 63 918 76
1316 75 2207 -1 644 -7 867 -23 823z"/>
<path d="M4111 4083 c-6 -32 -14 -69 -17 -83 -4 -18 -3 -21 4 -10 14 22 41
150 32 150 -4 0 -13 -26 -19 -57z"/>
<path d="M4980 4109 c-14 -25 -6 -49 15 -49 12 0 15 6 10 20 -5 15 -2 20 11
20 13 0 14 3 4 15 -17 20 -27 19 -40 -6z"/>
<path d="M4461 4097 c-6 -16 -11 -32 -11 -36 0 -5 -18 -52 -41 -106 -22 -54
-38 -99 -35 -102 13 -14 112 234 103 259 -3 8 -9 2 -16 -15z"/>
<path d="M4303 4093 c-48 -9 -20 -23 47 -23 69 0 92 12 48 24 -25 6 -59 6 -95
-1z"/>
<path d="M4356 4015 c-59 -42 -72 -54 -31 -31 33 19 93 66 85 66 -3 0 -27 -16
-54 -35z"/>
<path d="M3660 3956 c-96 -35 -199 -73 -227 -84 -76 -29 -198 -103 -273 -165
-68 -56 -129 -132 -115 -145 4 -4 10 -1 13 7 8 24 84 101 145 148 90 70 211
129 416 203 186 67 261 99 231 99 -8 0 -94 -28 -190 -63z"/>
<path d="M7456 3968 c-47 -83 -83 -258 -93 -458 -7 -145 6 -243 43 -316 25
-51 25 -39 -4 61 -46 162 4 624 78 718 22 28 25 37 10 37 -5 0 -20 -19 -34
-42z"/>
<path d="M4303 3939 c-43 -30 -58 -48 -25 -30 21 12 79 60 72 60 -3 0 -24 -13
-47 -30z"/>
<path d="M5354 3941 c7 -11 46 -35 46 -28 0 3 -12 12 -26 22 -15 9 -23 12 -20
6z"/>
<path d="M6642 3915 c-58 -26 -93 -56 -128 -110 -38 -61 -66 -75 -209 -105
-49 -10 -76 -19 -60 -19 50 -1 211 36 239 54 15 10 35 34 46 54 23 45 53 72
109 101 36 18 57 21 112 18 40 -2 65 0 60 5 -17 17 -134 18 -169 2z"/>
<path d="M3853 3850 c-97 -142 -263 -409 -296 -475 -38 -77 -118 -274 -133
-330 -8 -30 -14 -101 -14 -179 0 -122 1 -131 30 -191 76 -159 155 -213 350
-240 65 -9 43 4 -46 26 -149 39 -214 90 -277 219 -31 64 -32 67 -31 200 1 147
1 145 84 345 63 154 122 257 298 530 73 112 102 165 92 165 -5 0 -31 -32 -57
-70z"/>
<path d="M4319 3903 c-13 -16 -12 -17 4 -4 16 13 21 21 13 21 -2 0 -10 -8 -17
-17z"/>
<path d="M6945 3893 c21 -84 28 -151 28 -268 1 -135 -14 -202 -74 -343 -29
-68 -6 -39 34 43 47 95 67 184 67 291 -1 138 -29 304 -51 304 -7 0 -9 -10 -4
-27z"/>
<path d="M4393 3743 c-102 -173 -167 -293 -161 -298 2 -3 15 14 28 38 13 23
68 118 122 211 54 93 97 173 96 178 -2 5 -40 -53 -85 -129z"/>
<path d="M4243 3840 c-6 -19 -43 -128 -82 -242 -70 -204 -92 -285 -47 -178 45
110 147 420 144 438 -3 11 -8 6 -15 -18z"/>
<path d="M5480 3866 c0 -3 14 -12 30 -21 17 -9 30 -13 30 -11 0 3 -13 12 -30
21 -16 9 -30 13 -30 11z"/>
<path d="M4098 3795 c-59 -41 -78 -50 -78 -37 0 9 16 30 36 45 19 16 33 32 30
35 -4 3 -18 -5 -32 -19 -19 -18 -27 -21 -33 -10 -6 9 -11 5 -16 -16 -5 -15 -8
-31 -7 -34 2 -10 -26 -184 -53 -334 -27 -154 -33 -242 -9 -140 8 33 17 73 19
89 3 16 13 38 23 49 9 11 11 17 4 13 -15 -9 -15 -10 16 184 l17 105 94 63 c52
34 88 62 80 62 -8 -1 -49 -25 -91 -55z"/>
<path d="M4087 3729 c-76 -54 -74 -61 3 -9 51 35 69 50 57 50 -1 0 -28 -18
-60 -41z"/>
<path d="M5919 3683 c-63 -57 -69 -77 -79 -246 -8 -141 -11 -160 -50 -271 -25
-73 -82 -197 -145 -316 -57 -108 -108 -208 -114 -222 -38 -102 -194 -312 -308
-417 -126 -116 -237 -157 -565 -206 -150 -22 -203 -35 -147 -35 153 1 437 52
550 99 168 71 363 285 487 534 29 60 55 107 57 105 5 -5 -33 -397 -46 -469
-10 -54 -9 -111 4 -310 10 -134 22 -320 27 -413 6 -93 13 -172 16 -175 10 -9
-4 395 -20 583 -11 120 -12 191 -6 245 5 42 19 186 30 321 12 135 24 256 27
270 3 14 40 93 82 175 106 207 142 332 151 520 3 77 11 150 18 161 13 25 79
84 92 84 6 0 10 5 10 10 0 21 -31 9 -71 -27z"/>
<path d="M4054 3644 c-18 -14 -18 -15 4 -4 12 6 22 13 22 15 0 8 -5 6 -26 -11z"/>
<path d="M4090 3609 c-22 -18 -22 -19 -3 -10 12 6 25 16 28 21 9 15 3 12 -25
-11z"/>
<path d="M4049 3523 c-13 -16 -12 -17 4 -4 16 13 21 21 13 21 -2 0 -10 -8 -17
-17z"/>
<path d="M3081 3502 c-11 -9 -27 -44 -36 -77 -27 -105 -7 -182 120 -455 178
-381 254 -621 290 -910 9 -74 23 -148 32 -163 17 -33 29 -79 83 -338 21 -102
48 -222 59 -267 l21 -81 -74 -178 c-40 -98 -100 -230 -132 -293 -74 -147 -98
-197 -85 -185 15 15 412 804 503 1000 89 191 193 435 204 479 16 66 -17 9 -77
-132 -34 -81 -93 -214 -131 -297 -38 -82 -81 -176 -95 -208 -14 -32 -27 -56
-29 -54 -2 2 53 143 122 313 69 170 128 320 130 334 7 45 -76 -139 -183 -405
-58 -143 -112 -277 -121 -297 -8 -21 -18 -38 -21 -38 -3 0 -26 100 -50 223
-24 122 -61 296 -82 387 -21 91 -39 178 -39 194 0 16 -4 43 -10 60 -5 17 -21
86 -35 154 -44 208 -116 405 -277 750 -99 215 -122 293 -108 377 10 61 23 90
46 103 10 6 13 12 6 16 -5 3 -19 -2 -31 -12z"/>
<path d="M4070 3328 c-12 -22 -12 -22 6 -6 10 10 15 20 12 24 -4 3 -12 -5 -18
-18z"/>
<path d="M4005 3244 c-18 -16 -22 -22 -9 -15 18 9 53 42 43 41 -2 -1 -17 -12
-34 -26z"/>
<path d="M7781 3219 c-2 -32 -91 -117 -188 -181 -142 -94 -216 -133 -323 -169
-80 -27 -114 -33 -213 -37 -135 -5 -278 10 -389 42 -42 13 -75 19 -72 15 7
-12 129 -47 214 -60 114 -19 332 -16 407 4 96 27 209 78 309 140 190 118 270
191 261 239 -2 13 -5 16 -6 7z"/>
<path d="M6600 3100 c-79 -44 -162 -84 -185 -89 l-40 -9 38 -1 c39 -1 196 74
300 144 84 56 42 40 -113 -45z"/>
<path d="M3875 3073 c-4 -32 -19 -116 -34 -186 -15 -70 -24 -124 -20 -120 12
12 57 200 64 268 4 33 9 68 11 78 3 9 1 17 -5 17 -5 0 -13 -26 -16 -57z"/>
<path d="M3992 3035 c-12 -35 -22 -70 -22 -77 0 -7 -26 -39 -57 -72 l-58 -59
48 38 c57 45 62 31 8 -28 -21 -23 -36 -47 -34 -54 2 -7 -1 -21 -6 -32 -7 -13
-8 -22 -1 -26 5 -3 10 -2 10 4 0 5 16 26 35 47 19 20 33 39 31 41 -5 6 33 115
46 131 6 6 8 12 5 12 -3 0 4 28 14 62 26 83 10 94 -19 13z m-73 -237 c-8 -14
-14 -18 -17 -10 -2 6 -9 9 -15 5 -7 -3 -1 6 13 21 27 30 38 20 19 -16z"/>
<path d="M3929 3023 l-34 -38 38 34 c20 19 37 36 37 38 0 8 -8 0 -41 -34z"/>
<path d="M3924 2938 l-19 -23 23 19 c21 18 27 26 19 26 -2 0 -12 -10 -23 -22z"/>
<path d="M6413 2628 c1 -302 -1 -344 -21 -450 -43 -232 -107 -451 -231 -787
-17 -47 -29 -86 -27 -88 12 -12 164 402 211 572 81 297 101 476 90 795 -5 118
-9 229 -9 247 -1 17 -4 35 -8 38 -3 4 -6 -143 -5 -327z"/>
<path d="M7540 2943 c0 -5 21 -15 46 -22 91 -27 278 -129 329 -178 91 -90 93
-97 289 -1068 123 -604 172 -832 175 -798 1 11 -13 84 -135 728 -78 410 -180
888 -205 965 -41 127 -78 176 -175 240 -113 74 -324 161 -324 133z"/>
<path d="M7470 2876 c0 -2 19 -14 43 -26 23 -12 90 -53 149 -92 111 -72 187
-144 213 -200 18 -39 114 -421 176 -696 46 -202 62 -239 35 -76 -43 250 -171
752 -207 810 -29 47 -98 107 -201 175 -123 81 -208 124 -208 105z"/>
<path d="M6768 2772 c98 -65 135 -169 157 -444 10 -117 7 -709 -4 -1003 -11
-281 -12 -605 -2 -725 4 -47 9 66 15 310 5 212 12 419 16 460 l7 75 3 -80 c1
-44 5 -105 10 -135 4 -33 6 5 3 95 -10 279 27 907 67 1146 24 146 52 221 103
276 48 53 29 58 -23 6 -81 -82 -107 -215 -153 -768 -2 -22 -4 1 -5 50 -7 324
-39 557 -90 648 -29 53 -101 117 -129 117 -9 0 3 -12 25 -28z"/>
<path d="M3880 2688 c-19 -24 -26 -37 -17 -29 19 15 61 71 54 71 -2 0 -19 -19
-37 -42z"/>
<path d="M3740 2672 c0 -20 96 -80 108 -68 6 7 10 4 -51 44 -52 34 -57 37 -57
24z"/>
<path d="M2184 2315 c0 -55 1 -76 3 -47 2 29 2 74 0 100 -2 26 -3 2 -3 -53z"/>
<path d="M3960 2308 c0 -29 166 -181 308 -282 28 -21 52 -36 52 -33 0 2 -48
47 -107 98 -60 51 -141 125 -180 163 -43 41 -73 63 -73 54z"/>
<path d="M3930 2199 c0 -17 32 -110 36 -106 7 6 -16 88 -28 102 -4 5 -8 7 -8
4z"/>
<path d="M4032 2123 c-43 -56 -65 -93 -56 -93 8 0 79 85 98 118 17 28 -15 9
-42 -25z"/>
<path d="M4188 2035 c-3 -4 -2 -21 3 -38 7 -28 21 -111 49 -307 9 -59 46 -203
86 -337 14 -45 22 -92 19 -105 -6 -24 56 -161 110 -243 37 -57 23 -11 -30 95
-51 104 -147 480 -170 672 -21 164 -50 280 -67 263z"/>
<path d="M4025 1193 c-49 -20 -137 -52 -195 -72 -58 -21 -107 -42 -109 -47 -6
-12 40 -21 112 -23 l57 -1 1 -52 c2 -99 17 -120 18 -26 1 73 4 87 19 91 16 4
16 5 0 6 -13 1 -18 9 -18 30 0 31 26 49 44 31 15 -15 29 -12 23 4 -4 11 14 22
64 42 64 25 87 40 78 49 -2 1 -44 -13 -94 -32z m-135 -98 c0 -11 -11 -15 -42
-14 l-43 1 30 13 c39 18 55 18 55 0z"/>
<path d="M5573 1126 c20 -18 37 -42 37 -53 0 -10 4 -23 9 -28 11 -12 31 -182
31 -264 0 -52 -3 -61 -18 -61 -23 0 -42 -19 -36 -35 6 -15 -42 -115 -55 -115
-14 0 -133 -81 -127 -87 8 -9 144 76 167 105 10 14 22 36 25 49 4 12 12 23 19
23 20 0 79 -22 95 -35 8 -7 43 -27 77 -45 58 -29 65 -31 98 -19 19 7 35 18 35
23 0 6 12 21 28 33 l27 23 -26 -6 -26 -5 28 188 c15 103 26 190 23 192 -13 13
-24 -29 -43 -167 -12 -84 -21 -169 -21 -189 0 -55 -49 -81 -95 -49 -11 7 -47
23 -80 35 -33 12 -67 24 -75 28 -8 3 -24 8 -34 10 -26 5 -30 9 -21 23 4 7 18
9 31 6 l25 -7 -5 128 c-3 70 -12 156 -19 191 -8 34 -12 62 -10 62 2 0 16 -6
31 -14 41 -21 165 -46 219 -45 l48 1 -65 15 c-122 27 -195 52 -254 88 -73 44
-93 44 -43 1z m237 -531 c17 -9 30 -18 30 -21 0 -4 -59 23 -69 32 -10 9 13 3
39 -11z m96 -14 c-6 -9 -46 -22 -46 -15 0 3 10 9 23 14 29 11 29 11 23 1z"/>
<path d="M4480 914 c0 -4 27 -35 60 -70 69 -74 82 -115 54 -163 -10 -17 -21
-31 -25 -31 -9 0 -40 -48 -44 -69 -2 -10 -15 -43 -30 -72 -23 -48 -23 -51 -4
-29 12 14 34 50 50 80 16 30 43 72 61 93 43 51 43 97 0 160 -39 56 -122 125
-122 101z"/>
<path d="M3995 870 c-32 -12 -66 -17 -95 -14 l-45 4 40 -14 40 -14 -73 -71
c-40 -39 -134 -112 -209 -161 -75 -50 -133 -90 -127 -90 18 0 150 72 214 117
75 53 185 157 205 193 18 33 121 68 153 51 11 -6 49 -10 84 -9 l63 1 -60 7
c-33 5 -78 10 -100 14 -27 3 -56 -1 -90 -14z"/>
<path d="M6040 670 c0 -6 11 -15 24 -20 35 -13 56 -49 63 -109 8 -66 23 -77
23 -16 0 52 -18 102 -46 126 -25 22 -64 34 -64 19z"/>
<path d="M5990 594 c0 -14 3 -14 15 -4 8 7 15 14 15 16 0 2 -7 4 -15 4 -8 0
-15 -7 -15 -16z"/>
</g>
</svg>
