<svg xmlns="http://www.w3.org/2000/svg" version="1.1" xmlns:xlink="http://www.w3.org/1999/xlink" xmlns:svgjs="http://svgjs.dev/svgjs" width="1000" height="1000" viewBox="0 0 1000 1000"><rect width="1000" height="1000" fill="#2a160c"></rect><g transform="matrix(0.7,0,0,0.7,149.57575757575756,282.1265587044535)"><svg viewBox="0 0 396 247" data-background-color="#2a160c" preserveAspectRatio="xMidYMid meet" height="623" width="1000" xmlns="http://www.w3.org/2000/svg" xmlns:xlink="http://www.w3.org/1999/xlink"><g id="tight-bounds" transform="matrix(1,0,0,1,0.2400000000000091,-0.09999999999999432)"><svg viewBox="0 0 395.52 247.2" height="247.2" width="395.52"><g><svg></svg></g><g><svg viewBox="0 0 395.52 247.2" height="247.2" width="395.52"><g transform="matrix(1,0,0,1,39.55199999999999,97.54973646322378)"><svg viewBox="0 0 316.416 52.100527073552435" height="52.100527073552435" width="316.416"><g><svg viewBox="0 0 316.416 52.100527073552435" height="52.100527073552435" width="316.416"><g><svg viewBox="0 0 316.416 52.100527073552435" height="52.100527073552435" width="316.416"><g><svg viewBox="0 0 316.416 52.100527073552435" height="52.100527073552435" width="316.416"><g><svg viewBox="0 0 316.416 52.100527073552435" height="52.100527073552435" width="316.416" id="textblock"><g><svg viewBox="0 0 316.416 52.100527073552435" height="52.100527073552435" width="316.416"><g transform="matrix(1,0,0,1,0,0)"><svg width="316.416" viewBox="0.49000000953674316 -51.883636474609375 374.3900146484375 61.65363693237305" height="52.100527073552435" data-palette-color="#ffffff"><path d="M53.32-28.66L53.32-28.66Q53.32-27.88 53.05-27.05 52.78-26.22 52.39-25.54L52.39-25.54Q51.76-25.44 51.25-25.1 50.73-24.76 50.44-24.66L50.44-24.66Q49.8-24.56 48.95-24.58 48.1-24.61 47.41-24.56L47.41-24.56Q46.09-24.46 44.8-24.27 43.51-24.07 42.24-23.78L42.24-23.78Q42.14-23.78 42.04-23.75 41.94-23.73 41.94-23.63L41.94-23.63Q41.94-23.54 41.99-23.44 42.04-23.34 42.04-23.24L42.04-23.24Q42.04-23.1 41.75-23.1L41.75-23.1Q41.21-23.1 41.02-23.44L41.02-23.44Q39.45-23.05 37.89-22.63 36.33-22.22 34.77-21.83L34.77-21.83Q33.98-21.68 33.23-21.53 32.47-21.39 31.69-21.14L31.69-21.14Q31.3-21.04 30.91-20.8L30.91-20.8 30.13-20.31Q29.88-20.36 29.69-20.39 29.49-20.41 29.3-20.41L29.3-20.41Q28.47-20.41 27.54-20.09 26.61-19.78 25.93-19.24L25.93-19.24 25.59-19.24Q25.1-19.24 24.9-19.38L24.9-19.38Q24.46-19.43 24.37-19.12 24.27-18.8 24.02-18.55L24.02-18.55Q22.36-18.41 20.75-17.97 19.14-17.53 17.58-17.02 16.02-16.5 14.43-15.99 12.84-15.48 11.23-15.19L11.23-15.19Q11.04-14.21 11.04-12.94L11.04-12.94Q11.04-11.96 11.21-10.69 11.38-9.42 11.96-8.54L11.96-8.54 11.96-8.45Q11.96-8.2 11.77-8.11 11.57-8.01 11.57-7.76L11.57-7.76Q11.57-6.49 11.84-5.37 12.11-4.25 12.4-3.17 12.7-2.1 12.96-1.03 13.23 0.05 13.23 1.17L13.23 1.17Q13.23 1.46 13.21 1.73 13.18 2 13.13 2.29L13.13 2.29Q13.28 2.73 13.62 3.03 13.96 3.32 14.21 3.71L14.21 3.71Q14.26 3.96 14.26 4.15L14.26 4.15 14.26 4.64Q14.26 5.47 14.06 6.1 13.87 6.74 13.57 7.3 13.28 7.86 12.94 8.42 12.6 8.98 12.3 9.67L12.3 9.67Q11.82 9.77 11.52 9.77L11.52 9.77Q10.79 9.77 10.33 9.38 9.86 8.98 9.52 8.42 9.18 7.86 8.86 7.28 8.54 6.69 8.11 6.3L8.11 6.3Q8.15 6.05 8.18 5.86 8.2 5.66 8.2 5.42L8.2 5.42Q8.2 4.44 7.89 3.52 7.57 2.59 7.18 1.76L7.18 1.76Q7.13 0.1 6.84-1.51 6.54-3.13 6.01-4.69L6.01-4.69Q6.1-5.27 6.15-5.83 6.2-6.4 6.2-6.93L6.2-6.93Q6.2-8.35 6.05-9.77 5.91-11.18 6.01-12.6L6.01-12.6Q5.86-12.84 5.71-13.01 5.57-13.18 5.47-13.43L5.47-13.43 5.27-13.43Q4.54-13.43 3.86-13.31 3.17-13.18 2.49-13.18L2.49-13.18Q2.25-13.18 2.05-13.21 1.86-13.23 1.61-13.28L1.61-13.28Q1.07-13.82 0.78-14.5 0.49-15.19 0.49-15.92L0.49-15.92Q0.49-16.99 1.07-17.87L1.07-17.87Q2.29-18.16 3.49-18.58 4.69-18.99 5.81-19.58L5.81-19.58Q5.96-20.31 5.98-21.04 6.01-21.78 6.49-22.41L6.49-22.41Q6.35-22.8 6.03-23.12 5.71-23.44 5.71-23.88L5.71-23.88Q5.71-24.12 5.81-24.51L5.81-24.51Q6.3-25.05 6.49-25.88 6.69-26.71 6.84-27.64 6.98-28.56 7.15-29.49 7.32-30.42 7.76-31.15L7.76-31.15Q7.67-31.54 7.62-32.01 7.57-32.47 7.57-32.86L7.57-32.86Q7.57-33.45 7.64-34.06 7.71-34.67 7.91-35.21L7.91-35.21Q7.37-35.84 7.03-36.69 6.69-37.55 6.69-38.38L6.69-38.38Q6.69-39.99 8.25-40.43L8.25-40.43Q8.2-40.63 8.18-40.77 8.15-40.92 8.15-41.06L8.15-41.06Q8.15-41.5 8.4-41.89 8.64-42.29 8.79-42.68L8.79-42.68Q8.54-43.31 8.54-43.75L8.54-43.75Q8.54-44.14 8.69-44.46 8.84-44.78 8.94-45.17L8.94-45.17Q9.08-45.65 9.16-46.04 9.23-46.44 9.42-46.73 9.62-47.02 9.94-47.17 10.25-47.31 10.94-47.31L10.94-47.31Q12.01-47.31 13.01-46.66 14.01-46 14.55-45.17L14.55-45.17Q15.09-45.21 15.5-45.39 15.92-45.56 16.28-45.7 16.65-45.85 17.07-45.97 17.48-46.09 18.07-46.04L18.07-46.04Q18.21-46.39 18.58-46.51 18.95-46.63 19.34-46.7 19.73-46.78 20.07-46.92 20.41-47.07 20.51-47.46L20.51-47.46Q20.7-47.31 20.95-47.31L20.95-47.31Q21.19-47.31 21.44-47.39 21.68-47.46 21.97-47.46L21.97-47.46Q22.27-47.46 22.46-47.27L22.46-47.27Q23.73-47.95 25.17-48.27 26.61-48.58 28.03-48.63L28.03-48.63Q31.4-50.49 35.13-51.17 38.87-51.86 42.63-51.86L42.63-51.86Q43.16-51.86 43.68-51.88 44.19-51.9 44.68-51.81L44.68-51.81Q45.21-51.71 45.87-51.46 46.53-51.22 47.19-50.88 47.85-50.54 48.44-50.12 49.02-49.71 49.41-49.37L49.41-49.37Q49.8-48.49 49.8-47.66L49.8-47.66Q49.8-47.27 49.76-46.9 49.71-46.53 49.71-46.14L49.71-46.14Q49.71-45.56 49.95-44.82L49.95-44.82Q49.8-44.87 49.46-44.87L49.46-44.87Q49.02-44.87 48.73-44.68 48.44-44.48 48.19-44.24 47.95-43.99 47.73-43.8 47.51-43.6 47.31-43.6L47.31-43.6Q46.92-43.6 46.66-43.75 46.39-43.9 46.12-44.07 45.85-44.24 45.56-44.36 45.26-44.48 44.87-44.43L44.87-44.43 44.87-44.63Q44.87-45.17 44.53-45.34 44.19-45.51 43.99-45.85L43.99-45.85Q43.26-45.9 42.55-46.04 41.85-46.19 41.11-46.19L41.11-46.19Q40.14-46.19 39.6-45.51L39.6-45.51Q39.36-45.61 39.18-45.75 39.01-45.9 38.72-45.85L38.72-45.85 38.57-45.85Q35.94-45.85 33.4-45.29 30.86-44.73 28.37-43.92 25.88-43.12 23.39-42.19 20.9-41.26 18.41-40.58L18.41-40.58Q17.82-39.79 17.19-39.43 16.55-39.06 15.94-38.82 15.33-38.57 14.75-38.33 14.16-38.09 13.75-37.55 13.33-37.01 13.11-36.06 12.89-35.11 12.99-33.45L12.99-33.45Q12.74-33.15 12.7-32.81 12.65-32.47 12.6-32.15 12.55-31.84 12.45-31.54 12.35-31.25 12.11-31.01L12.11-31.01Q12.21-30.52 12.26-30.03 12.3-29.54 12.3-29.05L12.3-29.05Q12.3-27 11.62-25.05L11.62-25.05Q11.87-24.66 11.87-24.17L11.87-24.17Q11.87-23.63 11.72-23.19 11.57-22.75 11.57-22.22L11.57-22.22Q11.57-21.68 11.77-21.34L11.77-21.34Q12.06-21.34 12.11-21.14L12.11-21.14 12.4-21.14Q13.28-21.14 13.92-21.58 14.55-22.02 15.28-22.02L15.28-22.02Q15.43-22.02 15.63-21.92 15.82-21.83 15.97-21.83L15.97-21.83Q16.31-21.83 16.26-22.07 16.21-22.31 16.5-22.41L16.5-22.41 18.26-22.71Q19.92-23 21.41-23.41 22.9-23.83 24.37-24.66L24.37-24.66Q24.71-24.51 25.15-24.51L25.15-24.51Q25.54-24.51 25.98-24.63 26.42-24.76 26.81-24.76L26.81-24.76Q27.15-24.76 27.34-24.66L27.34-24.66Q27.64-24.85 28.08-24.98 28.52-25.1 28.56-25.54L28.56-25.54 28.66-25.54Q28.86-25.54 28.96-25.44 29.05-25.34 29.25-25.34L29.25-25.34 29.44-25.34Q30.47-25.83 31.3-26.07L31.3-26.07Q32.67-26.42 34.23-26.68 35.79-26.95 37.01-27.64L37.01-27.64Q38.43-27.64 39.77-28.1 41.11-28.56 42.48-28.56L42.48-28.56Q43.12-28.56 43.65-28.37L43.65-28.37Q44.14-28.71 44.8-28.86 45.46-29 45.9-29.39L45.9-29.39Q46.19-29.35 46.51-29.32 46.83-29.3 47.17-29.3L47.17-29.3Q48.63-29.3 49.98-29.71 51.32-30.13 52.73-30.32L52.73-30.32Q53.08-29.93 53.2-29.52 53.32-29.1 53.32-28.66ZM75.83-28.27L75.83-28.27Q75.53-27.83 75.49-27.29 75.44-26.76 75.44-26.32L75.44-26.32Q75.44-25.73 75.46-25.17 75.49-24.61 75.49-24.07L75.49-24.07 75.49-23.34Q75.39-23 75.19-22.66 75-22.31 74.9-21.97L74.9-21.97Q74.22-20.17 74.22-18.36L74.22-18.36 74.22-18.26Q73.97-17.68 73.75-17.19 73.53-16.7 73.34-16.24 73.14-15.77 73.04-15.26 72.95-14.75 73-14.06L73-14.06Q72.31-12.35 71.19-10.96 70.07-9.57 68.99-8.11L68.99-8.11Q67.97-7.71 67.11-7.08 66.26-6.45 65.48-5.66L65.48-5.66Q63.96-5.18 62.5-4.54 61.03-3.91 59.86-2.83L59.86-2.83Q58.93-2.73 58.01-2.54 57.08-2.34 56.2-1.95L56.2-1.95 55.61-1.95Q55.17-1.95 54.98-2.15L54.98-2.15Q54.34-1.81 53.66-1.68 52.98-1.56 52.29-1.56L52.29-1.56Q51.41-1.56 50.56-1.68 49.7-1.81 48.83-1.95L48.83-1.95Q48.34-2.64 47.46-3 46.58-3.37 45.9-3.71L45.9-3.71Q44.48-5.66 43.85-7.5 43.21-9.33 42.53-11.62L42.53-11.62Q42.62-12.3 42.87-12.96 43.11-13.62 43.06-14.4L43.06-14.4Q43.94-16.94 45.38-19.02 46.82-21.09 48.68-23L48.68-23Q48.68-23.29 48.8-23.49 48.92-23.68 48.83-24.07L48.83-24.07Q48.87-24.02 49.02-24.02L49.02-24.02Q49.41-24.02 49.51-24.24 49.61-24.46 49.56-24.76L49.56-24.76Q51.32-25.88 52.76-27.34 54.2-28.81 56.05-29.79L56.05-29.79Q56.2-30.22 56.54-30.52 56.88-30.81 57.08-31.2L57.08-31.2Q58.64-31.64 59.91-32.52 61.18-33.4 62.6-34.08L62.6-34.08Q63.38-34.52 64.08-34.69 64.79-34.86 65.62-35.06L65.62-35.06Q65.92-35.16 66.16-35.21 66.4-35.25 66.7-35.25L66.7-35.25Q67.58-35.25 68.41-34.94 69.24-34.62 70.11-34.62L70.11-34.62Q70.36-34.62 70.53-34.64 70.7-34.67 70.9-34.72L70.9-34.72Q71.73-33.69 73-33.15L73-33.15Q73.29-32.42 73.7-31.88 74.12-31.35 74.56-30.83 75-30.32 75.36-29.71 75.73-29.1 75.83-28.27ZM70.94-25.73L70.94-25.73Q70.94-25.98 70.9-26.17L70.9-26.17Q70.41-26.32 69.97-26.56 69.53-26.81 68.99-26.81L68.99-26.81Q68.65-26.81 68.31-26.66L68.31-26.66Q68.26-27 68.04-27.15 67.82-27.29 67.55-27.42 67.28-27.54 67.01-27.61 66.75-27.69 66.55-27.88L66.55-27.88Q66.4-28.27 66.23-28.69 66.06-29.1 65.62-29.3L65.62-29.3Q65.18-28.86 64.6-28.59 64.01-28.32 63.4-28.08 62.79-27.83 62.23-27.49 61.67-27.15 61.28-26.66L61.28-26.66 60.4-26.66Q60.1-26.12 59.57-25.85 59.03-25.59 58.64-25.1L58.64-25.1Q57.86-24.71 57.2-24.15 56.54-23.58 55.91-22.97 55.27-22.36 54.66-21.73 54.05-21.09 53.37-20.56L53.37-20.56Q52.73-19.19 51.98-18.19 51.22-17.19 50.56-16.16 49.9-15.14 49.44-13.94 48.97-12.74 48.97-10.99L48.97-10.99 48.97-10.5Q48.97-10.25 49.02-10.01L49.02-10.01Q49.66-9.33 50.07-8.54 50.49-7.76 51.46-7.42L51.46-7.42Q52.44-7.03 53.54-7.08 54.64-7.13 55.66-6.84L55.66-6.84Q58.01-7.28 60.18-8.28 62.35-9.28 64.3-10.69L64.3-10.69Q64.6-10.94 64.99-11.21 65.38-11.47 65.62-11.77L65.62-11.77Q65.87-12.01 66.04-12.3 66.21-12.6 66.4-12.84L66.4-12.84Q66.79-13.48 67.28-14.11 67.77-14.75 68.31-15.28L68.31-15.28Q68.55-16.36 68.94-17.36 69.33-18.36 69.72-19.34 70.11-20.31 70.38-21.34 70.65-22.36 70.65-23.49L70.65-23.49Q70.65-23.73 70.63-24.02 70.6-24.32 70.55-24.56L70.55-24.56Q70.94-25.1 70.94-25.73ZM141.65-8.5L141.65-8.5Q141.55-7.76 141.13-7.37 140.72-6.98 140.18-6.64L140.18-6.64Q139.94-6.69 139.72-6.71 139.5-6.74 139.25-6.74L139.25-6.74Q137.74-6.79 136.4-6.35 135.05-5.91 133.64-5.71L133.64-5.71Q133.15-5.62 132.73-5.64 132.32-5.66 131.88-5.57L131.88-5.57Q130.32-5.32 128.56-5.18 126.8-5.03 125.04-4.81 123.29-4.59 121.6-4.27 119.92-3.96 118.45-3.37L118.45-3.37Q118.31-3.47 118.16-3.59 118.01-3.71 117.82-3.71L117.82-3.71Q117.33-3.71 116.89-3.56 116.45-3.42 116.01-3.47L116.01-3.47Q115.52-3.17 114.96-3.05 114.4-2.93 113.84-2.86 113.28-2.78 112.74-2.64 112.2-2.49 111.71-2.1L111.71-2.1Q111.32-2.29 110.76-2.32 110.2-2.34 110-2.69L110-2.69Q108.88-2.15 107.64-2 106.39-1.86 105.12-1.9L105.12-1.9Q104.29-1.95 103.22-2.15 102.14-2.34 101.07-2.71 100-3.08 99.07-3.59 98.14-4.1 97.65-4.83L97.65-4.83Q97.31-5.32 97.16-5.91 97.02-6.49 96.48-6.79L96.48-6.79Q96.63-7.91 96.82-8.98 97.02-10.06 97.21-11.18L97.21-11.18Q98.19-12.01 99.07-12.94 99.95-13.87 100.73-14.89L100.73-14.89Q101.66-15.33 102.46-15.97 103.27-16.6 104.07-17.26 104.88-17.92 105.68-18.55 106.49-19.19 107.42-19.68L107.42-19.68Q107.56-20.02 107.83-20.24 108.1-20.46 108.39-20.68 108.69-20.9 108.93-21.17 109.17-21.44 109.27-21.83L109.27-21.83Q110.98-22.85 112.25-24.41 113.52-25.98 113.91-27.93L113.91-27.93Q113.08-28.61 112.03-28.83 110.98-29.05 109.86-29.15L109.86-29.15Q108.88-29.2 107.83-29.15 106.78-29.1 105.71-29.2L105.71-29.2Q104.63-28.86 103.49-28.76 102.34-28.66 101.22-28.59 100.09-28.52 98.99-28.3 97.9-28.08 96.87-27.49L96.87-27.49Q96.67-27.49 96.5-27.54 96.33-27.59 96.14-27.59L96.14-27.59Q94.58-27.64 93.21-26.98 91.84-26.32 90.52-25.68L90.52-25.68Q90.42-25.49 90.42-25.39L90.42-25.39Q90.42-25.1 90.55-24.83 90.67-24.56 90.67-24.27L90.67-24.27Q90.62-24.22 90.62-24.17 90.62-24.12 90.57-24.07L90.57-24.07Q90.52-23.83 90.45-23.63 90.38-23.44 90.28-23.19L90.28-23.19Q89.74-21.63 89.69-20.12L89.69-20.12Q89.64-18.85 89.69-17.63 89.74-16.41 89.69-15.14L89.69-15.14Q89.59-13.57 89.2-12.21L89.2-12.21Q89.45-11.04 89.64-9.74 89.84-8.45 90.13-7.18 90.42-5.91 90.84-4.71 91.25-3.52 91.94-2.44L91.94-2.44Q91.89-2.34 91.99-2.29 92.08-2.25 92.18-2.25L92.18-2.25 92.57-2.25Q92.82-2.25 92.77-2.05L92.77-2.05Q92.87-1.9 92.91-1.78 92.96-1.66 93.11-1.56L93.11-1.56Q93.21-1.42 93.11-1.17L93.11-1.17Q93.06-0.2 92.62 0.63 92.18 1.46 92.08 2.44L92.08 2.44Q91.5 2.59 91.01 2.59L91.01 2.59Q90.18 2.54 89.55 2.12 88.91 1.71 88.37 1.12 87.84 0.54 87.35-0.07 86.86-0.68 86.27-1.12L86.27-1.12Q85.93-2.49 85.62-4.15 85.3-5.81 84.57-6.98L84.57-6.98Q84.76-7.42 84.76-8.06L84.76-8.06Q84.81-9.03 84.59-9.99 84.37-10.94 84.47-11.91L84.47-11.91Q84.47-12.45 84.59-12.99 84.71-13.53 84.76-14.06L84.76-14.06Q84.81-14.89 84.59-15.67 84.37-16.46 84.42-17.29L84.42-17.29Q84.47-17.68 84.59-18.04 84.71-18.41 84.96-18.7L84.96-18.7Q84.71-19.29 84.81-19.82L84.81-19.82Q84.86-20.65 85-21.39 85.15-22.12 85.2-22.85L85.2-22.85Q85.2-23.24 85.15-23.61 85.1-23.97 85-24.32L85-24.32 84.57-24.46Q84.27-24.46 84-24.32 83.74-24.17 83.54-23.97 83.34-23.78 83.2-23.66 83.05-23.54 82.91-23.54L82.91-23.54Q82.81-23.54 82.69-23.56 82.56-23.58 82.47-23.58L82.47-23.58Q82.37-23.58 82.1-23.39 81.83-23.19 81.46-22.97 81.1-22.75 80.76-22.53 80.41-22.31 80.22-22.27L80.22-22.27Q79.68-22.36 79.37-22.63 79.05-22.9 78.78-23.17 78.51-23.44 78.22-23.66 77.92-23.88 77.49-23.83L77.49-23.83Q77.34-24.12 77.31-24.46 77.29-24.8 77.34-25.15L77.34-25.15 77.34-25.93Q77.68-26.56 78.24-26.98 78.8-27.39 79.44-27.69L79.44-27.69 80.71-28.27Q81.34-28.56 81.88-29L81.88-29 82.32-29Q83.2-28.96 83.86-29.35 84.52-29.74 85.1-30.25 85.69-30.76 86.3-31.3 86.91-31.84 87.64-32.13L87.64-32.13Q88.18-31.88 88.76-31.71 89.35-31.54 89.99-31.49L89.99-31.49Q90.62-31.49 91.3-31.69 91.99-31.88 92.38-32.42L92.38-32.42Q92.62-32.32 92.79-32.3 92.96-32.28 93.21-32.28L93.21-32.28Q93.94-32.23 94.67-32.5 95.41-32.76 96.09-33.15L96.09-33.15Q97.07-33.11 98.02-33.28 98.97-33.45 99.92-33.64 100.87-33.84 101.83-34.01 102.78-34.18 103.75-34.13L103.75-34.13Q105.37-34.08 106.93-34.42 108.49-34.77 110.1-34.67L110.1-34.67Q111.23-34.62 112.32-34.5 113.42-34.38 114.55-34.42L114.55-34.42Q115.18-34.13 115.69-33.91 116.21-33.69 116.99-33.79L116.99-33.79Q118.55-32.47 119.82-30.71L119.82-30.71 119.82-29.88Q119.77-28.76 119.43-27.69 119.09-26.61 118.62-25.56 118.16-24.51 117.62-23.51 117.08-22.51 116.6-21.53L116.6-21.53Q113.42-18.65 110.25-15.82 107.08-12.99 103.71-10.35L103.71-10.35Q103.61-9.86 103.44-9.47 103.27-9.08 103.22-8.64L103.22-8.64Q103.22-8.4 103.27-8.25L103.27-8.25Q103.61-8.15 103.88-7.89 104.15-7.62 104.05-7.18L104.05-7.18 104.49-7.18Q104.73-7.18 104.73-6.98L104.73-6.98 105.51-6.93Q107.37-6.84 109.22-7.03 111.08-7.23 112.96-7.47 114.84-7.71 116.69-7.93 118.55-8.15 120.41-8.2L120.41-8.2Q120.84-8.35 121.33-8.45 121.82-8.54 122.21-8.84L122.21-8.84 122.36-8.84Q122.7-8.84 122.87-8.64 123.04-8.45 123.38-8.4L123.38-8.4Q123.63-8.4 123.9-8.5 124.16-8.59 124.46-8.64L124.46-8.64Q125.14-8.84 125.9-8.89 126.66-8.94 127.39-9.03L127.39-9.03Q130.22-9.28 133-9.35 135.79-9.42 138.57-10.06L138.57-10.06Q138.81-9.72 139.25-9.59 139.69-9.47 140.18-9.35 140.67-9.23 141.08-9.08 141.5-8.94 141.65-8.5ZM187.74-8.5L187.74-8.5Q187.64-7.76 187.22-7.37 186.81-6.98 186.27-6.64L186.27-6.64Q186.03-6.69 185.81-6.71 185.59-6.74 185.34-6.74L185.34-6.74Q183.83-6.79 182.49-6.35 181.14-5.91 179.73-5.71L179.73-5.71Q179.24-5.62 178.83-5.64 178.41-5.66 177.97-5.57L177.97-5.57Q176.41-5.32 174.65-5.18 172.89-5.03 171.14-4.81 169.38-4.59 167.69-4.27 166.01-3.96 164.54-3.37L164.54-3.37Q164.4-3.47 164.25-3.59 164.1-3.71 163.91-3.71L163.91-3.71Q163.42-3.71 162.98-3.56 162.54-3.42 162.1-3.47L162.1-3.47Q161.61-3.17 161.05-3.05 160.49-2.93 159.93-2.86 159.37-2.78 158.83-2.64 158.29-2.49 157.81-2.1L157.81-2.1Q157.41-2.29 156.85-2.32 156.29-2.34 156.1-2.69L156.1-2.69Q154.97-2.15 153.73-2 152.48-1.86 151.21-1.9L151.21-1.9Q150.38-1.95 149.31-2.15 148.23-2.34 147.16-2.71 146.09-3.08 145.16-3.59 144.23-4.1 143.74-4.83L143.74-4.83Q143.4-5.32 143.25-5.91 143.11-6.49 142.57-6.79L142.57-6.79Q142.72-7.91 142.91-8.98 143.11-10.06 143.3-11.18L143.3-11.18Q144.28-12.01 145.16-12.94 146.04-13.87 146.82-14.89L146.82-14.89Q147.75-15.33 148.55-15.97 149.36-16.6 150.16-17.26 150.97-17.92 151.77-18.55 152.58-19.19 153.51-19.68L153.51-19.68Q153.65-20.02 153.92-20.24 154.19-20.46 154.48-20.68 154.78-20.9 155.02-21.17 155.27-21.44 155.36-21.83L155.36-21.83Q157.07-22.85 158.34-24.41 159.61-25.98 160-27.93L160-27.93Q159.17-28.61 158.12-28.83 157.07-29.05 155.95-29.15L155.95-29.15Q154.97-29.2 153.92-29.15 152.87-29.1 151.8-29.2L151.8-29.2Q150.72-28.86 149.58-28.76 148.43-28.66 147.31-28.59 146.18-28.52 145.09-28.3 143.99-28.08 142.96-27.49L142.96-27.49Q142.77-27.49 142.6-27.54 142.42-27.59 142.23-27.59L142.23-27.59Q140.67-27.64 139.3-26.98 137.93-26.32 136.61-25.68L136.61-25.68Q136.52-25.49 136.52-25.39L136.52-25.39Q136.52-25.1 136.64-24.83 136.76-24.56 136.76-24.27L136.76-24.27Q136.71-24.22 136.71-24.17 136.71-24.12 136.66-24.07L136.66-24.07Q136.61-23.83 136.54-23.63 136.47-23.44 136.37-23.19L136.37-23.19Q135.83-21.63 135.78-20.12L135.78-20.12Q135.73-18.85 135.78-17.63 135.83-16.41 135.78-15.14L135.78-15.14Q135.69-13.57 135.3-12.21L135.3-12.21Q135.54-11.04 135.73-9.74 135.93-8.45 136.22-7.18 136.52-5.91 136.93-4.71 137.35-3.52 138.03-2.44L138.03-2.44Q137.98-2.34 138.08-2.29 138.18-2.25 138.27-2.25L138.27-2.25 138.66-2.25Q138.91-2.25 138.86-2.05L138.86-2.05Q138.96-1.9 139.01-1.78 139.06-1.66 139.2-1.56L139.2-1.56Q139.3-1.42 139.2-1.17L139.2-1.17Q139.15-0.2 138.71 0.63 138.27 1.46 138.18 2.44L138.18 2.44Q137.59 2.59 137.1 2.59L137.1 2.59Q136.27 2.54 135.64 2.12 135 1.71 134.47 1.12 133.93 0.54 133.44-0.07 132.95-0.68 132.37-1.12L132.37-1.12Q132.02-2.49 131.71-4.15 131.39-5.81 130.66-6.98L130.66-6.98Q130.85-7.42 130.85-8.06L130.85-8.06Q130.9-9.03 130.68-9.99 130.46-10.94 130.56-11.91L130.56-11.91Q130.56-12.45 130.68-12.99 130.8-13.53 130.85-14.06L130.85-14.06Q130.9-14.89 130.68-15.67 130.46-16.46 130.51-17.29L130.51-17.29Q130.56-17.68 130.68-18.04 130.8-18.41 131.05-18.7L131.05-18.7Q130.8-19.29 130.9-19.82L130.9-19.82Q130.95-20.65 131.1-21.39 131.24-22.12 131.29-22.85L131.29-22.85Q131.29-23.24 131.24-23.61 131.19-23.97 131.1-24.32L131.1-24.32 130.66-24.46Q130.36-24.46 130.1-24.32 129.83-24.17 129.63-23.97 129.44-23.78 129.29-23.66 129.14-23.54 129-23.54L129-23.54Q128.9-23.54 128.78-23.56 128.65-23.58 128.56-23.58L128.56-23.58Q128.46-23.58 128.19-23.39 127.92-23.19 127.56-22.97 127.19-22.75 126.85-22.53 126.51-22.31 126.31-22.27L126.31-22.27Q125.77-22.36 125.46-22.63 125.14-22.9 124.87-23.17 124.6-23.44 124.31-23.66 124.02-23.88 123.58-23.83L123.58-23.83Q123.43-24.12 123.41-24.46 123.38-24.8 123.43-25.15L123.43-25.15 123.43-25.93Q123.77-26.56 124.33-26.98 124.89-27.39 125.53-27.69L125.53-27.69 126.8-28.27Q127.43-28.56 127.97-29L127.97-29 128.41-29Q129.29-28.96 129.95-29.35 130.61-29.74 131.19-30.25 131.78-30.76 132.39-31.3 133-31.84 133.73-32.13L133.73-32.13Q134.27-31.88 134.86-31.71 135.44-31.54 136.08-31.49L136.08-31.49Q136.71-31.49 137.39-31.69 138.08-31.88 138.47-32.42L138.47-32.42Q138.71-32.32 138.88-32.3 139.06-32.28 139.3-32.28L139.3-32.28Q140.03-32.23 140.76-32.5 141.5-32.76 142.18-33.15L142.18-33.15Q143.16-33.11 144.11-33.28 145.06-33.45 146.01-33.64 146.97-33.84 147.92-34.01 148.87-34.18 149.85-34.13L149.85-34.13Q151.46-34.08 153.02-34.42 154.58-34.77 156.19-34.67L156.19-34.67Q157.32-34.62 158.42-34.5 159.51-34.38 160.64-34.42L160.64-34.42Q161.27-34.13 161.78-33.91 162.3-33.69 163.08-33.79L163.08-33.79Q164.64-32.47 165.91-30.71L165.91-30.71 165.91-29.88Q165.86-28.76 165.52-27.69 165.18-26.61 164.71-25.56 164.25-24.51 163.71-23.51 163.18-22.51 162.69-21.53L162.69-21.53Q159.51-18.65 156.34-15.82 153.17-12.99 149.8-10.35L149.8-10.35Q149.7-9.86 149.53-9.47 149.36-9.08 149.31-8.64L149.31-8.64Q149.31-8.4 149.36-8.25L149.36-8.25Q149.7-8.15 149.97-7.89 150.24-7.62 150.14-7.18L150.14-7.18 150.58-7.18Q150.82-7.18 150.82-6.98L150.82-6.98 151.6-6.93Q153.46-6.84 155.31-7.03 157.17-7.23 159.05-7.47 160.93-7.71 162.79-7.93 164.64-8.15 166.5-8.2L166.5-8.2Q166.94-8.35 167.42-8.45 167.91-8.54 168.3-8.84L168.3-8.84 168.45-8.84Q168.79-8.84 168.96-8.64 169.13-8.45 169.47-8.4L169.47-8.4Q169.72-8.4 169.99-8.5 170.26-8.59 170.55-8.64L170.55-8.64Q171.23-8.84 171.99-8.89 172.75-8.94 173.48-9.03L173.48-9.03Q176.31-9.28 179.09-9.35 181.88-9.42 184.66-10.06L184.66-10.06Q184.9-9.72 185.34-9.59 185.78-9.47 186.27-9.35 186.76-9.23 187.18-9.08 187.59-8.94 187.74-8.5ZM204.78-31.05L204.78-31.05 204.78-30.86Q204.43-30.76 204.43-30.37L204.43-30.37Q203.9-30.13 203.31-30 202.72-29.88 202.19-29.64L202.19-29.64Q201.65-29.69 201.09-29.71 200.53-29.74 199.99-29.74L199.99-29.74Q198.53-29.74 197.06-29.64 195.6-29.54 194.13-29.64L194.13-29.64Q193.45-29.25 192.64-29.03 191.84-28.81 191.1-28.81L191.1-28.81Q190.52-28.81 190.08-28.96L190.08-28.96Q188.91-28.37 187.51-27.98 186.12-27.59 184.71-27.22 183.29-26.86 182-26.39 180.7-25.93 179.73-25.1L179.73-25.1Q179.63-24.41 179.58-23.75 179.53-23.1 179.53-22.46L179.53-22.46Q179.53-21.78 179.6-21.19 179.68-20.61 179.92-20.02L179.92-20.02Q180.17-19.92 180.48-19.87 180.8-19.82 181.04-19.82L181.04-19.82Q181.29-19.82 181.53-19.9 181.78-19.97 181.87-20.21L181.87-20.21Q182.61-20.31 183.34-20.29 184.07-20.26 184.8-20.26L184.8-20.26Q185.54-20.26 186.24-20.31 186.95-20.36 187.64-20.56L187.64-20.56Q188.42-20.75 189.17-20.8 189.93-20.85 190.66-20.9 191.4-20.95 192.18-21.07 192.96-21.19 193.79-21.58L193.79-21.58Q194.42-21.34 195.08-21.34 195.74-21.34 196.38-21.24L196.38-21.24Q196.72-21 196.94-20.7 197.16-20.41 197.16-20.02L197.16-20.02Q197.16-19.34 196.67-18.65 196.18-17.97 195.89-17.38L195.89-17.38 195.35-17.38Q194.18-17.38 193.08-17.07 191.98-16.75 190.88-16.33 189.78-15.92 188.69-15.6 187.59-15.28 186.42-15.28L186.42-15.28Q186.22-15.28 186.2-15.06 186.17-14.84 186.07-14.75L186.07-14.75Q185.83-14.79 185.34-14.79L185.34-14.79Q184.22-14.79 183.19-14.55 182.17-14.31 181.09-14.31L181.09-14.31Q180.8-14.31 180.51-14.33 180.21-14.36 179.92-14.4L179.92-14.4Q179.68-14.01 179.29-13.89 178.9-13.77 178.55-13.48L178.55-13.48Q178.41-13.04 178.38-12.4 178.36-11.77 178.33-11.11 178.31-10.45 178.21-9.86 178.12-9.28 177.82-8.94L177.82-8.94Q177.87-8.69 178.21-8.76 178.55-8.84 178.55-8.45L178.55-8.45Q178.55-8.01 178.46-7.52 178.36-7.03 178.36-6.54L178.36-6.54Q178.36-5.62 178.58-4.52 178.8-3.42 179.26-2.49 179.73-1.56 180.51-0.95 181.29-0.34 182.46-0.34L182.46-0.34Q183.24-0.34 183.93-0.63 184.61-0.93 185.05-1.61L185.05-1.61 185.29-1.66Q185.49-1.66 185.66-1.61 185.83-1.56 186.03-1.56L186.03-1.56Q186.32-1.56 186.78-1.93 187.25-2.29 187.81-2.78 188.37-3.27 188.95-3.74 189.54-4.2 190.08-4.39L190.08-4.39Q190.42-5.08 190.74-5.76 191.05-6.45 191.69-6.84L191.69-6.84 191.69-8.25Q192.18-8.79 192.74-9.23 193.3-9.67 193.59-10.35L193.59-10.35Q193.84-10.25 194.06-10.21 194.28-10.16 194.52-10.16L194.52-10.16Q194.77-10.16 195.03-10.21 195.3-10.25 195.55-10.35L195.55-10.35Q195.94-9.81 196.16-9.16 196.38-8.5 196.72-7.91L196.72-7.91Q196.28-7.03 195.69-5.81 195.11-4.59 194.42-3.37 193.74-2.15 192.98-1.05 192.23 0.05 191.49 0.63L191.49 0.63Q191.35 0.78 190.86 0.98L190.86 0.98Q190.32 1.37 189.88 1.73 189.44 2.1 189.05 2.59L189.05 2.59Q187.64 3.03 186.34 3.76 185.05 4.49 183.78 5.18L183.78 5.18Q183.19 5.03 182.51 5.03L182.51 5.03Q181.92 5.03 181.34 5.1 180.75 5.18 180.07 5.18L180.07 5.18Q179.87 4.93 179.51 4.86 179.14 4.79 179.24 4.35L179.24 4.35Q177.58 4.25 176.55 3.44 175.53 2.64 174.82 1.46 174.11 0.29 173.67-1.07 173.23-2.44 172.74-3.71L172.74-3.71 172.74-3.86Q172.74-4.1 172.94-4.15 173.13-4.2 173.13-4.44L173.13-4.44Q173.13-4.54 173.09-4.59L173.09-4.59Q172.94-5.13 172.84-5.52 172.74-5.91 172.74-6.45L172.74-6.45Q172.74-7.23 172.84-7.98 172.94-8.74 172.94-9.52L172.94-9.52Q172.94-10.3 172.74-10.89L172.74-10.89Q172.94-11.13 173.06-11.55 173.18-11.96 173.23-12.4 173.28-12.84 173.31-13.28 173.33-13.72 173.43-14.06L173.43-14.06Q173.23-14.6 173.09-15.01 172.94-15.43 172.94-16.02L172.94-16.02 172.94-16.36Q173.43-17.19 173.77-18.07 174.11-18.95 174.5-19.87L174.5-19.87 174.5-20.02Q174.5-21.44 174.4-22.85 174.31-24.27 174.31-25.68L174.31-25.68 174.31-26.61Q174.31-27.1 174.36-27.54L174.36-27.54Q174.75-27.73 174.94-28.08 175.14-28.42 175.53-28.61L175.53-28.61 177.14-28.61 177.43-29.1Q177.58-29.35 177.63-29.64L177.63-29.64Q178.16-29.79 178.68-30.05 179.19-30.32 179.63-30.62L179.63-30.62Q180.31-31.01 180.87-31.32 181.44-31.64 182-31.86 182.56-32.08 183.19-32.23 183.83-32.37 184.66-32.47L184.66-32.47Q185.05-32.47 185.17-32.62 185.29-32.76 185.54-32.96L185.54-32.96Q186.12-32.86 186.71-32.79 187.29-32.71 187.88-32.71L187.88-32.71Q189.05-32.71 190.08-33.15L190.08-33.15Q191.54-33.15 192.98-33.2 194.42-33.25 195.89-33.25L195.89-33.25Q197.16-33.25 198.43-33.15 199.7-33.06 200.92-32.81L200.92-32.81Q201.36-32.96 201.89-32.96L201.89-32.96Q202.48-32.96 203.09-32.84 203.7-32.71 204.29-32.81L204.29-32.81Q204.34-32.28 204.56-31.91 204.78-31.54 204.78-31.05ZM228.26-6.15L228.26-6.15Q228.26-5.32 227.84-4.71 227.43-4.1 227.53-3.22L227.53-3.22Q226.84-2.83 226.4-2.2 225.96-1.56 225.57-0.88L225.57-0.88Q222.35 1.22 218.66 2.51 214.98 3.81 211.07 3.81L211.07 3.81Q210.83 3.81 210.63 3.59 210.44 3.37 210.24 3.13 210.05 2.88 209.83 2.66 209.61 2.44 209.31 2.44L209.31 2.44Q208.97 2.44 208.78 2.59L208.78 2.59Q208.78 2.49 208.8 2.42 208.83 2.34 208.83 2.25L208.83 2.25Q208.83 1.66 208.68 1.05 208.53 0.44 208.53-0.15L208.53-0.15Q208.53-0.83 208.78-1.27L208.78-1.27 209.36-1.27Q209.85-1.27 210.31-1.34 210.78-1.42 211.32-1.42L211.32-1.42Q211.85-1.42 212.29-1.12L212.29-1.12Q214.98-1.22 217.39-2.12 219.81-3.03 222.3-3.91L222.3-3.91Q222.69-4.44 222.77-5.1 222.84-5.76 223.13-6.35L223.13-6.35Q221.86-7.42 220.57-8.03 219.27-8.64 217.57-8.45L217.57-8.45Q216.54-9.08 215.39-9.18 214.25-9.28 213.07-9.47L213.07-9.47Q212.78-9.52 212.46-9.59 212.15-9.67 211.8-9.67L211.8-9.67Q211.56-9.67 211.34-9.55 211.12-9.42 211.22-9.18L211.22-9.18Q210.97-9.57 210.56-9.64 210.14-9.72 209.85-10.01L209.85-10.01Q208.29-10.11 207.12-10.57 205.94-11.04 204.53-11.62L204.53-11.62Q204.14-11.77 203.77-11.84 203.41-11.91 203.06-12.11L203.06-12.11Q202.18-12.55 201.65-13.28 201.11-14.01 200.79-14.92 200.48-15.82 200.33-16.8 200.18-17.77 200.04-18.6L200.04-18.6Q200.48-19.38 200.84-20.21 201.21-21.04 201.45-21.97L201.45-21.97Q201.75-22.12 202.04-22.22 202.33-22.31 202.67-22.46L202.67-22.46Q202.62-22.56 202.62-22.71L202.62-22.71Q202.62-22.95 202.8-23.19 202.97-23.44 202.87-23.68L202.87-23.68Q203.94-24.66 204.94-25.71 205.94-26.76 206.68-28.03L206.68-28.03Q207.41-28.27 207.85-28.76 208.29-29.25 208.73-29.76 209.17-30.27 209.7-30.69 210.24-31.1 211.07-31.2L211.07-31.2Q211.27-31.54 211.61-31.76 211.95-31.98 212.29-32.18 212.63-32.37 212.93-32.62 213.22-32.86 213.37-33.3L213.37-33.3Q214.15-33.3 214.81-33.59 215.47-33.89 216.1-34.23 216.74-34.57 217.39-34.86 218.05-35.16 218.84-35.16L218.84-35.16Q219.03-35.16 219.23-35.13 219.42-35.11 219.67-35.06L219.67-35.06Q220.01-34.72 220.13-34.25 220.25-33.79 220.3-33.25 220.35-32.71 220.37-32.18 220.4-31.64 220.54-31.2L220.54-31.2Q220.1-30.37 219.59-29.54 219.08-28.71 218.25-28.27L218.25-28.27 218.15-28.27Q217.81-28.22 217.52-28.42 217.22-28.61 216.83-28.61L216.83-28.61Q216.59-28.61 216.44-28.47L216.44-28.47 216.2-28.22Q216.1-28.13 215.93-28.03 215.76-27.93 215.47-28.03L215.47-28.03Q214.78-27.78 214.93-27.2L214.93-27.2Q214-27.1 213.37-26.64 212.73-26.17 212.19-25.61 211.66-25.05 211.12-24.58 210.58-24.12 209.85-24.07L209.85-24.07Q209.02-22.61 207.82-21.48 206.63-20.36 205.85-18.95L205.85-18.95Q205.99-18.55 206.04-18.12 206.09-17.68 206.19-17.19L206.19-17.19Q206.63-16.6 207.24-16.16 207.85-15.72 208.43-15.28L208.43-15.28 208.58-15.28Q209.56-15.28 210.39-14.92 211.22-14.55 212.15-14.55L212.15-14.55Q212.63-14.55 212.98-14.75L212.98-14.75Q214.25-14.45 215.49-14.26 216.74-14.06 218.01-13.96L218.01-13.96Q218.64-13.87 219.3-13.87 219.96-13.87 220.54-13.72L220.54-13.72Q221.08-13.57 221.62-13.35 222.16-13.13 222.69-12.89L222.69-12.89Q223.82-12.4 224.82-11.82 225.82-11.23 226.6-10.42 227.38-9.62 227.82-8.57 228.26-7.52 228.26-6.15ZM270.54-31.4L270.69-31.4Q270.49-30.76 270.05-30.22L270.05-30.22 269.22-29.2Q268.83-28.71 268.56-28.15 268.3-27.59 268.39-26.86L268.39-26.86Q268.3-26.86 268.15-26.88 268-26.9 267.9-26.9L267.9-26.9Q267.12-26.9 266.71-26.54 266.29-26.17 265.61-25.93L265.61-25.93Q265.51-26.22 265.37-26.49 265.22-26.76 264.93-26.86L264.93-26.86Q263.75-26.61 262.58-26.49 261.41-26.37 260.24-26.17L260.24-26.17Q259.7-26.07 259.16-25.9 258.63-25.73 258.04-25.59L258.04-25.59Q257.75-25.49 257.41-25.51 257.07-25.54 256.72-25.49L256.72-25.49Q255.55-25.44 254.18-25.32 252.82-25.2 251.74-24.56L251.74-24.56Q251.25-24.66 250.72-24.71 250.18-24.76 249.64-24.76L249.64-24.76Q248.47-24.76 247.08-24.54 245.69-24.32 244.61-23.68L244.61-23.68Q244.37-23.78 244.1-23.83 243.83-23.88 243.49-23.88L243.49-23.88Q243.39-23.88 243.34-23.85 243.3-23.83 243.2-23.83L243.2-23.83Q243.15-23.39 243.32-22.97 243.49-22.56 243.93-22.31L243.93-22.31Q243.74-21.78 243.74-21.14L243.74-21.14Q243.74-20.31 243.86-19.48 243.98-18.65 243.98-17.82L243.98-17.82Q243.98-16.89 243.74-16.36L243.74-16.36Q244.22-14.89 244.22-13.23L244.22-13.23Q244.22-12.65 244.15-12.08 244.08-11.52 244.08-10.89L244.08-10.89Q244.08-10.35 244.47-10.03 244.86-9.72 244.86-9.18L244.86-9.18Q244.86-8.98 244.76-8.79L244.76-8.79Q245.44-8.94 246.08-9.2 246.71-9.47 247.4-9.47L247.4-9.47Q247.79-9.47 248.15-9.33 248.52-9.18 248.81-8.94L248.81-8.94Q248.76-8.69 248.74-8.4 248.72-8.11 248.72-7.81L248.72-7.81Q248.72-7.28 248.74-6.81 248.76-6.35 248.81-5.81L248.81-5.81Q248.42-5.13 247.91-4.59 247.4-4.05 247.2-3.22L247.2-3.22Q246.47-3.22 245.91-2.91 245.35-2.59 244.86-2.22 244.37-1.86 243.88-1.54 243.39-1.22 242.81-1.22L242.81-1.22Q242.07-1.22 241.78-1.44 241.49-1.66 241.34-1.9 241.2-2.15 241.07-2.34 240.95-2.54 240.56-2.49L240.56-2.49Q240.46-3.13 240.17-3.69 239.88-4.25 239.56-4.79 239.24-5.32 238.93-5.88 238.61-6.45 238.46-7.03L238.46-7.03Q238.17-8.3 238.22-9.67 238.27-11.04 237.78-12.3L237.78-12.3Q237.88-12.99 237.92-13.7 237.97-14.4 237.97-15.09L237.97-15.09Q237.97-16.46 237.9-17.8 237.83-19.14 237.78-20.56L237.78-20.56Q237.44-21 237.36-21.56 237.29-22.12 237.24-22.66L237.24-22.66Q237.09-22.8 236.92-22.95 236.75-23.1 236.7-23.34L236.7-23.34Q236.31-23.44 236.12-23.44L236.12-23.44Q235.43-23.44 234.97-23.12 234.51-22.8 234.12-22.8L234.12-22.8Q233.73-22.8 233.38-22.9 233.04-23 232.7-23L232.7-23Q232.41-23 232.38-22.88 232.36-22.75 232.16-22.66L232.16-22.66Q232.02-22.56 231.48-22.46 230.94-22.36 230.28-22.29 229.62-22.22 229.01-22.17 228.4-22.12 228.21-22.12L228.21-22.12Q227.43-22.12 227.01-22.44 226.6-22.75 226.01-23.14L226.01-23.14Q226.11-23.44 226.11-23.54L226.11-23.54Q226.11-24.02 225.82-24.34 225.52-24.66 225.52-24.9L225.52-24.9Q225.52-25.44 225.94-25.73 226.35-26.03 226.4-26.66L226.4-26.66Q227.52-27.15 228.7-27.39 229.87-27.64 231.09-27.78 232.31-27.93 233.51-28.13 234.7-28.32 235.87-28.76L235.87-28.76Q236.22-28.71 236.53-28.69 236.85-28.66 237.19-28.66L237.19-28.66Q238.66-28.66 240.1-28.98 241.54-29.3 243.05-29.3L243.05-29.3Q243.44-29.3 243.83-29.25 244.22-29.2 244.61-29.1L244.61-29.1Q246.57-29.39 248.5-29.74 250.42-30.08 252.48-30.32L252.48-30.32Q253.45-30.42 254.4-30.49 255.36-30.57 256.33-30.71L256.33-30.71Q256.67-30.76 256.85-30.88 257.02-31.01 257.02-31.4L257.02-31.4Q257.46-31.2 257.99-31.2L257.99-31.2Q258.82-31.2 259.6-31.49 260.39-31.79 261.22-31.79L261.22-31.79Q261.41-31.79 261.56-31.76 261.7-31.74 261.85-31.74L261.85-31.74Q262.19-31.74 262.22-32.06 262.24-32.37 262.68-32.47L262.68-32.47Q263.02-32.57 263.66-32.62 264.29-32.67 265-32.74 265.71-32.81 266.32-32.93 266.93-33.06 267.22-33.3L267.22-33.3 267.56-33.84Q268.44-33.79 268.86-33.08 269.27-32.37 269.32-31.54L269.32-31.54Q269.52-31.35 269.88-31.37 270.25-31.4 270.54-31.4L270.54-31.4ZM332.4-11.18L332.4-11.18Q332.4-10.21 332.08-9.59 331.77-8.98 331.38-8.2L331.38-8.2Q331.28-8.25 331.13-8.25L331.13-8.25Q330.84-8.25 330.6-8.11 330.35-7.96 330.11-7.86L330.11-7.86Q328.69-6.3 327.2-4.83 325.71-3.37 323.91-2.25L323.91-2.25Q323.42-1.95 322.93-1.68 322.44-1.42 321.9-1.17L321.9-1.17Q321.71-1.07 321.54-1 321.37-0.93 321.22-0.83L321.22-0.83Q320.88-0.63 320.51-0.2 320.15 0.24 319.68 0.71 319.22 1.17 318.68 1.49 318.14 1.81 317.51 1.76L317.51 1.76Q317.12 2 316.83 2.39 316.53 2.78 316.14 3.17L316.14 3.17Q314.04 3.91 312.31 5.1 310.58 6.3 308.72 7.42L308.72 7.42Q307.6 8.15 306.47 8.59L306.47 8.59Q306.23 8.69 305.91 8.74 305.6 8.79 305.25 8.89L305.25 8.89Q303.64 9.28 302.01 9.52 300.37 9.77 298.71 9.77L298.71 9.77Q296.66 9.77 294.76 9.28L294.76 9.28Q294.76 9.13 294.66 9.08 294.56 9.03 294.44 8.98 294.32 8.94 294.22 8.86 294.12 8.79 294.22 8.59L294.22 8.59Q293.14 8.5 292.34 8.06 291.53 7.62 291.29 6.49L291.29 6.49Q291.14 6.59 291.04 6.74 290.95 6.88 290.7 6.84L290.7 6.84Q290.02 5.86 289.19 5.03 288.36 4.2 287.97 3.03L287.97 3.03Q287.87 2.78 287.85 2.56 287.82 2.34 287.77 2.1L287.77 2.1Q287.53 1.42 286.89 1.42L286.89 1.42Q286.99 1.22 286.99 0.93L286.99 0.93Q286.99 0.78 286.97 0.63 286.94 0.49 286.94 0.34L286.94 0.34Q286.94 0.1 287.09-0.15L287.09-0.15Q286.6-1.27 286.41-2.37 286.21-3.47 286.21-4.64L286.21-4.64Q286.21-6.15 286.36-7.64 286.5-9.13 286.5-10.64L286.5-10.64Q286.8-11.23 286.97-12.01 287.14-12.79 287.58-13.28L287.58-13.28Q287.53-13.57 287.38-13.6 287.24-13.62 287.24-13.87L287.24-13.87Q287.24-14.75 287.58-15.77 287.92-16.8 287.92-17.87L287.92-17.87Q288.36-18.12 288.48-18.6 288.6-19.09 288.99-19.38L288.99-19.38 288.99-19.63Q288.99-20.36 289.16-21.09 289.34-21.83 289.51-22.53 289.68-23.24 289.8-23.95 289.92-24.66 289.87-25.34L289.87-25.34Q289.97-25.49 290.14-25.9 290.31-26.32 290.48-26.78 290.65-27.25 290.78-27.69 290.9-28.13 290.9-28.32L290.9-28.32Q290.9-28.61 290.8-28.86 290.7-29.1 290.7-29.39L290.7-29.39Q290.7-29.64 290.85-30.1 291-30.57 291.09-30.86L291.09-30.86Q291.29-31.69 291.46-32.59 291.63-33.5 291.78-34.33L291.78-34.33Q292.22-37.01 292.41-39.72 292.61-42.43 292.66-45.17L292.66-45.17Q293.34-45.56 294.1-45.9 294.85-46.24 295.68-46.24L295.68-46.24Q295.93-46.24 296.17-46.19 296.42-46.14 296.66-46.04L296.66-46.04Q296.9-45.07 297.44-44.48 297.98-43.9 298.42-43.07L298.42-43.07Q298.12-42.29 298.03-41.46L298.03-41.46 297.88-39.79Q297.83-38.96 297.69-38.16 297.54-37.35 297.2-36.62L297.2-36.62Q297.29-36.38 297.29-36.13L297.29-36.13 297.29-35.64Q297.29-34.96 297.17-34.33 297.05-33.69 296.9-33.03 296.76-32.37 296.66-31.74 296.56-31.1 296.66-30.47L296.66-30.47Q296.51-30.22 296.37-30.1 296.22-29.98 296.17-29.74L296.17-29.74 296.07-28.81Q295.98-28.27 295.9-27.76 295.83-27.25 295.73-26.71L295.73-26.71Q295.39-25.24 294.98-23.78 294.56-22.31 294.56-20.75L294.56-20.75 294.56-20.46Q294.12-19.78 293.88-18.77 293.63-17.77 293.73-16.94L293.73-16.94Q293.19-15.53 292.7-14.16 292.22-12.79 292.22-11.33L292.22-11.33Q292.22-11.08 292.24-10.82 292.27-10.55 292.31-10.3L292.31-10.3Q291.92-9.33 291.83-8.33 291.73-7.32 291.73-6.35L291.73-6.35Q291.73-5.66 291.8-4.76 291.87-3.86 292.05-2.91 292.22-1.95 292.46-1.07 292.7-0.2 293 0.34L293 0.34Q294.12 2.15 295.95 3.2 297.78 4.25 299.83 4.54L299.83 4.54Q300.66 4.25 301.18 4.2 301.69 4.15 302.62 4.2L302.62 4.2Q303.4 3.81 304.2 3.61 305.01 3.42 305.84 3.17L305.84 3.17Q306.08 3.08 306.35 2.98 306.62 2.88 306.82 2.78L306.82 2.78Q307.06 2.69 307.35 2.34 307.65 2 307.89 1.76L307.89 1.76Q308.92 1.46 309.84 0.95 310.77 0.44 311.65-0.1L311.65-0.1 313.46-1.17Q314.38-1.71 315.41-2.1L315.41-2.1Q315.8-2.25 315.87-2.51 315.95-2.78 316.14-3.17L316.14-3.17Q316.24-3.08 316.44-3.08L316.44-3.08Q317.02-3.08 317.27-3.44 317.51-3.81 317.85-4.2L317.85-4.2Q318.49-4.3 319.07-4.57 319.66-4.83 319.95-5.42L319.95-5.42Q321.17-5.66 322.1-6.3 323.03-6.93 323.91-7.69 324.78-8.45 325.66-9.16 326.54-9.86 327.67-10.3L327.67-10.3Q327.81-10.55 327.86-10.74 327.91-10.94 328.01-11.18L328.01-11.18Q328.84-11.28 329.33-11.65 329.81-12.01 330.45-12.4L330.45-12.4Q331.82-12.26 332.4-11.18ZM338.11-6.69L338.11-6.69Q337.87-6.3 337.53-5.98 337.18-5.66 336.89-5.32L336.89-5.32Q336.55-5.18 336.13-5.18 335.72-5.18 335.35-5.2 334.99-5.22 334.67-5.2 334.35-5.18 334.16-4.98L334.16-4.98Q333.77-5.08 333.57-5.35 333.38-5.62 332.89-5.66L332.89-5.66Q332.69-5.71 332.5-5.66L332.5-5.66Q331.76-6.49 331.15-7.42 330.54-8.35 330.01-9.18L330.01-9.18Q329.96-10.99 329.71-12.84L329.71-12.84Q329.67-13.28 329.57-13.72 329.47-14.16 329.42-14.55L329.42-14.55Q329.42-15.04 329.49-15.5 329.57-15.97 329.62-16.36L329.62-16.36Q329.81-17.77 330.06-19.14 330.3-20.51 330.5-21.92L330.5-21.92Q330.69-23.19 330.69-24.58 330.69-25.98 330.25-27.2L330.25-27.2 330.2-27.44Q330.3-27.83 330.42-28.1 330.54-28.37 330.59-28.71L330.59-28.71Q330.69-29.25 330.35-29.49L330.35-29.49Q330.5-29.88 330.84-30 331.18-30.13 331.23-30.57L331.23-30.57Q331.28-30.76 331.23-30.96L331.23-30.96Q331.62-31.1 332.03-31.23 332.45-31.35 332.84-31.25L332.84-31.25Q333.47-31.15 333.96-30.83 334.45-30.52 334.89-30.13L334.89-30.13Q335.67-27.78 335.52-25.17 335.38-22.56 335.04-19.92 334.69-17.29 334.6-14.77 334.5-12.26 335.38-10.11L335.38-10.11 335.48-10.06Q335.72-10.01 335.87-10.23 336.01-10.45 336.26-10.4L336.26-10.4Q336.45-10.3 336.5-10.3L336.5-10.3Q336.7-9.33 337.14-8.45 337.58-7.57 338.11-6.69ZM374.88-32.08L374.88-32.08Q374.78-31.49 374.61-31.08 374.44-30.66 374.54-29.98L374.54-29.98Q374.05-29.93 373.78-29.66 373.51-29.39 373.34-29.05 373.17-28.71 373-28.34 372.83-27.98 372.58-27.69L372.58-27.69Q372.97-25.93 373.02-24.12 373.07-22.31 373.27-20.56L373.27-20.56Q373.51-18.31 374.02-16.14 374.54-13.96 374.54-11.72L374.54-11.72Q374.54-11.04 374.51-10.45 374.49-9.86 374.49-9.23L374.49-9.23Q374.49-8.84 374.51-8.42 374.54-8.01 374.54-7.62L374.54-7.62Q374.54-6.2 374.17-4.79 373.8-3.37 373.61-1.95L373.61-1.95Q373.02-1.42 372.61-0.78 372.19-0.15 371.75 0.39 371.31 0.93 370.73 1.34 370.14 1.76 369.26 1.9L369.26 1.9Q369.12 2.39 368.7 2.64 368.29 2.88 367.99 3.32L367.99 3.32 367.89 3.32Q366.67 3.32 365.8 2.98 364.92 2.64 364.16 2.2 363.4 1.76 362.62 1.27 361.84 0.78 360.81 0.49L360.81 0.49Q359.45-0.63 358.32-1.98 357.2-3.32 355.79-4.39L355.79-4.39Q355.44-5.37 354.88-6.01 354.32-6.64 353.78-7.47L353.78-7.47Q353.54-7.81 353.42-8.11 353.3-8.4 353.1-8.79L353.1-8.79Q352.95-9.18 352.64-9.33 352.32-9.47 352.07-9.67L352.07-9.67Q351.68-11.18 350.95-12.45 350.22-13.72 349.24-14.89L349.24-14.89Q348.95-14.36 348.78-13.75 348.61-13.13 348.46-12.52 348.31-11.91 348.1-11.3 347.88-10.69 347.53-10.21L347.53-10.21 347.53-10.06Q347.53-9.81 347.73-9.77 347.92-9.72 347.92-9.47L347.92-9.47Q347.92-9.42 347.9-9.38 347.88-9.33 347.88-9.28L347.88-9.28Q347.63-9.08 347.51-8.79 347.39-8.5 347-8.45L347-8.45Q347.05-8.2 347.05-7.96L347.05-7.96 347.05-7.52Q347.05-6.1 346.73-4.69 346.41-3.27 346.41-1.81L346.41-1.81 346.41-1.17Q346.41-0.83 346.46-0.54L346.46-0.54Q346.56-0.24 346.75 0.05 346.95 0.34 346.95 0.59L346.95 0.59Q346.95 0.93 346.65 1.22L346.65 1.22Q347 1.46 347.44 1.76 347.88 2.05 348.24 2.42 348.61 2.78 348.85 3.2 349.1 3.61 349.1 4.1L349.1 4.1Q349.1 4.93 348.56 5.27 348.02 5.62 347.27 5.81 346.51 6.01 345.7 6.18 344.9 6.35 344.36 6.79L344.36 6.79 344.21 6.79Q343.63 6.79 343.33 6.45 343.04 6.1 342.46 6.1L342.46 6.1Q341.53 4.59 341.19 2.71 340.84 0.83 340.84-0.88L340.84-0.88Q340.84-2.98 341.21-5.08 341.58-7.18 342.09-9.23 342.6-11.28 343.21-13.31 343.82-15.33 344.36-17.38L344.36-17.38 344.41-17.53Q344.41-17.77 344.29-17.87 344.16-17.97 344.16-18.16L344.16-18.16Q344.16-18.26 344.21-18.26L344.21-18.26Q344.36-18.75 344.53-19.19 344.7-19.63 344.8-20.17L344.8-20.17Q345.09-21.53 345.21-22.97 345.34-24.41 345.36-25.83 345.39-27.25 345.46-28.69 345.53-30.13 345.78-31.54L345.78-31.54Q346.17-31.93 346.51-32.37 346.85-32.81 347.39-33.15L347.39-33.15Q348.36-33.11 349.34-32.86 350.32-32.62 351.2-32.08L351.2-32.08Q351.78-29.98 352-27.88 352.22-25.78 352.76-23.68L352.76-23.68 352.76-23.54Q352.76-23.29 353.03-23.32 353.3-23.34 353.44-23.14L353.44-23.14Q353.34-23 353.32-22.8 353.3-22.61 353.3-22.41L353.3-22.41 353.3-21.58Q353.39-21.19 353.54-20.75 353.69-20.31 354.17-20.21L354.17-20.21Q354.42-18.65 354.91-17.33 355.39-16.02 356.03-14.79 356.66-13.57 357.4-12.38 358.13-11.18 358.91-9.86L358.91-9.86Q360.13-8.94 361.01-7.74 361.89-6.54 362.79-5.44 363.7-4.35 364.84-3.52 365.99-2.69 367.85-2.49L367.85-2.49Q368.09-2.69 368.19-3.03L368.19-3.03 368.43-3.71Q368.58-4.05 368.75-4.32 368.92-4.59 369.26-4.74L369.26-4.74Q369.36-6.1 369.48-7.52 369.6-8.94 370.09-10.21L370.09-10.21Q369.85-10.64 369.85-11.28L369.85-11.28Q369.85-11.77 369.92-12.21 369.99-12.65 369.99-13.09L369.99-13.09Q369.99-14.01 369.6-14.6L369.6-14.6Q369.6-14.94 369.65-15.31 369.7-15.67 369.95-16.02L369.95-16.02Q369.56-16.99 369.34-18.07 369.12-19.14 369.12-20.26L369.12-20.26Q369.12-20.9 369.26-21.58L369.26-21.58Q368.97-22.31 368.87-23.29L368.87-23.29 368.68-25.29Q368.58-26.32 368.38-27.2 368.19-28.08 367.65-28.61L367.65-28.61Q367.94-29.05 367.94-29.64L367.94-29.64Q367.94-30.62 367.65-31.49 367.36-32.37 367.36-33.35L367.36-33.35Q367.36-34.03 367.65-34.72L367.65-34.72Q368.73-34.67 369.77-34.5 370.82-34.33 371.85-34.33L371.85-34.33Q372.14-33.94 372.53-33.69 372.92-33.45 373.36-33.23 373.8-33.01 374.22-32.76 374.63-32.52 374.88-32.08Z" opacity="1" transform="matrix(1,0,0,1,0,0)" fill="#ffffff" class="undefined-text-0" data-fill-palette-color="primary" id="text-0"></path></svg></g></svg></g></svg></g></svg></g><g></g></svg></g></svg></g></svg></g><g mask="url(#0418495d-bd32-4c59-ab71-c47604296545)"><g transform="matrix(10.216713759851302, 0, 0, 10.216713759851302, 75.16055537479811, 1)"><svg xmlns="http://www.w3.org/2000/svg" xmlns:xlink="http://www.w3.org/1999/xlink" version="1.1" x="0" y="0" viewBox="0 0.0001103430986404419 23.999780654907227 23.999889373779297" style="enable-background:new 0 0 24 24;" xml:space="preserve" height="23.999889373779297" width="23.999780654907227" class="icon-none" data-fill-palette-color="accent" id="none"><g fill="#ffffff" data-fill-palette-color="accent"><g fill="#ffffff" data-fill-palette-color="accent"><path d="M6.854 19.147l-2-2c-0.105-0.106-0.264-0.157-0.402-0.144-0.149 0.015-0.284 0.096-0.367 0.22l-4 6c-0.132 0.198-0.106 0.462 0.063 0.631C0.243 23.95 0.371 24 0.5 24c0.096 0 0.192-0.027 0.277-0.084l6-4c0.125-0.083 0.205-0.218 0.221-0.367C7.013 19.401 6.96 19.253 6.854 19.147z" fill="#ffffff" data-fill-palette-color="accent"></path><path d="M16.433 9.749c-0.022-0.037-0.049-0.072-0.079-0.102l-2-2c-0.03-0.031-0.064-0.057-0.103-0.079C13.394 7.069 12.422 7 11.5 7 9.685 7 7.986 7.907 6.957 9.427c-0.081 0.12-0.106 0.269-0.069 0.409 0.038 0.14 0.134 0.257 0.265 0.32C7.675 10.412 8 10.927 8 11.5 8 12.327 7.327 13 6.5 13c-0.73 0-1.351-0.524-1.473-1.247-0.024-0.145-0.112-0.272-0.238-0.347-0.127-0.075-0.279-0.089-0.419-0.042C1.756 12.272 0 14.737 0 17.5 0 21.084 2.916 24 6.5 24c2.762 0 5.228-1.756 6.137-4.37 0.048-0.139 0.032-0.292-0.042-0.418-0.075-0.126-0.202-0.214-0.347-0.238C11.525 18.851 11 18.231 11 17.5c0-0.827 0.673-1.5 1.5-1.5 0.573 0 1.088 0.325 1.344 0.848 0.063 0.13 0.181 0.227 0.32 0.264 0.143 0.038 0.29 0.012 0.409-0.069C16.093 16.013 17 14.315 17 12.5 17 11.578 16.932 10.607 16.433 9.749zM7.5 16h-1C6.224 16 6 15.777 6 15.5S6.224 15 6.5 15h0.793l1.854-1.854c0.195-0.195 0.512-0.195 0.707 0s0.195 0.512 0 0.707l-2 2C7.76 15.947 7.633 16 7.5 16zM10.854 14.854L9 16.707V17.5C9 17.777 8.776 18 8.5 18S8 17.777 8 17.5v-1c0-0.133 0.053-0.26 0.146-0.354l2-2c0.195-0.195 0.512-0.195 0.707 0S11.049 14.658 10.854 14.854z" fill="#ffffff" data-fill-palette-color="accent"></path><path d="M21.854 3.147l-1-1c-0.188-0.187-0.488-0.195-0.686-0.02l-9 8c-0.104 0.091-0.164 0.221-0.168 0.359s0.049 0.271 0.146 0.368l2 2C13.24 12.947 13.367 13 13.5 13c0.005 0 0.01 0 0.015 0 0.138-0.004 0.268-0.065 0.359-0.168l8-9C22.05 3.634 22.041 3.334 21.854 3.147z" fill="#ffffff" data-fill-palette-color="accent"></path><path d="M23.854 1.147l-1-1c-0.143-0.143-0.359-0.187-0.545-0.108C22.122 0.115 22 0.298 22 0.5c0 0.073-0.071 0.121-0.494 0.26C20.942 0.945 20 1.255 20 2.5 20 2.777 20.224 3 20.5 3c0.138 0 0.263-0.056 0.354-0.146l0.293 0.293C21.056 3.237 21 3.362 21 3.5 21 3.777 21.224 4 21.5 4c1.299 0 1.602-0.962 1.783-1.537C23.332 2.307 23.415 2.047 23.5 2c0.202 0 0.385-0.122 0.462-0.309S23.996 1.29 23.854 1.147z" fill="#ffffff" data-fill-palette-color="accent"></path><path d="M21.5 5.5c-0.128 0-0.256-0.049-0.354-0.146l-0.5-0.5c-0.195-0.195-0.195-0.512 0-0.707s0.512-0.195 0.707 0l0.5 0.5c0.195 0.195 0.195 0.512 0 0.707C21.756 5.451 21.628 5.5 21.5 5.5z" fill="#ffffff" data-fill-palette-color="accent"></path><path d="M20.5 6.5c-0.128 0-0.256-0.049-0.354-0.146l-0.5-0.5c-0.195-0.195-0.195-0.512 0-0.707s0.512-0.195 0.707 0l0.5 0.5c0.195 0.195 0.195 0.512 0 0.707C20.756 6.451 20.628 6.5 20.5 6.5z" fill="#ffffff" data-fill-palette-color="accent"></path><path d="M19.5 3.5c-0.128 0-0.256-0.049-0.354-0.146l-0.5-0.5c-0.195-0.195-0.195-0.512 0-0.707s0.512-0.195 0.707 0l0.5 0.5c0.195 0.195 0.195 0.512 0 0.707C19.756 3.451 19.628 3.5 19.5 3.5z" fill="#ffffff" data-fill-palette-color="accent"></path><path d="M18.5 4.5c-0.128 0-0.256-0.049-0.354-0.146l-0.5-0.5c-0.195-0.195-0.195-0.512 0-0.707s0.512-0.195 0.707 0l0.5 0.5c0.195 0.195 0.195 0.512 0 0.707C18.756 4.451 18.628 4.5 18.5 4.5z" fill="#ffffff" data-fill-palette-color="accent"></path></g></g></svg></g></g></svg></g><defs><mask id="0418495d-bd32-4c59-ab71-c47604296545"><rect width="640" height="400" fill="white"></rect><rect width="348.05760000000004" height="76.69989513238437" fill="black" x="145.97119999999998" y="161.65005243380782" id="transform-me" transform="matrix(1,0,0,1,-122.24000000000001,-76.4)"></rect></mask></defs></svg><rect width="395.52" height="247.2" fill="none" stroke="none" visibility="hidden"></rect></g></svg></g></svg>